<svg width="42" height="43" viewBox="0 0 42 43" fill="none" xmlns="http://www.w3.org/2000/svg">
<path d="M41.0159 17.1593C40.6213 17.1593 40.2658 16.9198 40.1153 16.554L38.9207 13.6564L37.7191 10.7374C37.5686 10.3704 37.6516 9.94861 37.93 9.66862C38.3104 9.28617 38.3104 8.66423 37.93 8.28177L33.7539 4.0831C33.3735 3.70064 32.7549 3.70064 32.3745 4.0831C32.096 4.36309 31.6765 4.44768 31.3115 4.29518L28.4081 3.08705L25.5261 1.88607C25.1611 1.73475 24.9241 1.37612 24.9241 0.980563C24.9241 0.438453 24.4868 0 23.9488 0H18.0425C17.5033 0 17.0672 0.439645 17.0672 0.980563C17.0672 1.37732 16.829 1.73475 16.4651 1.88607L13.5831 3.08705L10.6797 4.29518C10.3147 4.44649 9.8952 4.36309 9.61672 4.0831C9.23631 3.70064 8.61772 3.70064 8.23731 4.0831L4.06118 8.28177C3.68078 8.66423 3.68078 9.28617 4.06118 9.66862C4.33967 9.94861 4.42381 10.3704 4.27212 10.7374L3.06811 13.6612L1.87594 16.554C1.72544 16.921 1.36874 17.1593 0.975299 17.1593C0.4361 17.1593 0 17.5989 0 18.1398V24.078C0 24.6201 0.437285 25.0586 0.975299 25.0586C1.36992 25.0586 1.72544 25.2981 1.87594 25.6638L3.07047 28.5615L4.27212 31.4805C4.42262 31.8475 4.33967 32.2692 4.06118 32.5492C3.68078 32.9317 3.68078 33.5536 4.06118 33.9361L8.23731 38.1348C8.61772 38.5172 9.23631 38.5172 9.61672 38.1348C9.8952 37.8548 10.3147 37.7702 10.6797 37.9227L13.5831 39.1308L16.4651 40.3318C16.8301 40.4831 17.0672 40.8417 17.0672 41.2373C17.0672 41.7794 17.5044 42.2179 18.0425 42.2179H23.9488C24.488 42.2179 24.9241 41.7782 24.9241 41.2373C24.9241 40.8405 25.1623 40.4831 25.5261 40.3318L28.4081 39.1308L31.3115 37.9227C31.6765 37.7714 32.096 37.8548 32.3745 38.1348C32.7549 38.5172 33.3735 38.5172 33.7539 38.1348L37.93 33.9361C38.3104 33.5536 38.3104 32.9317 37.93 32.5492C37.6516 32.2692 37.5674 31.8475 37.7191 31.4805L38.9231 28.5567L40.1153 25.6638C40.2658 25.2969 40.6225 25.0586 41.0159 25.0586C41.5551 25.0586 41.9912 24.6189 41.9912 24.078V21.1089V18.1398C41.9912 17.5977 41.5539 17.1593 41.0159 17.1593ZM20.9956 37.7892C11.8328 37.7892 4.40485 30.3212 4.40485 21.1089C4.40485 11.8966 11.8328 4.42862 20.9956 4.42862C30.1585 4.42862 37.5864 11.8966 37.5864 21.1089C37.5864 30.3212 30.1585 37.7892 20.9956 37.7892Z" fill="#323232"/>
<path d="M20.9956 5.80371C16.9582 5.80371 13.0866 7.41574 10.2306 10.2871C7.3758 13.1573 5.77124 17.051 5.77124 21.1103H7.11509C7.11509 17.3834 8.55849 13.8782 11.1798 11.2427C13.8012 8.60719 17.2864 7.15601 20.9944 7.15601C24.7025 7.15601 28.1877 8.60719 30.8091 11.2427C33.4304 13.8782 34.8738 17.3822 34.8738 21.1103H36.2177C36.2177 17.051 34.6143 13.1585 31.7583 10.2871C28.9035 7.41694 25.0307 5.80371 20.9933 5.80371H20.9956Z" fill="#FE4F02"/>
<path d="M20.9958 4.42871C16.5957 4.42871 12.3757 6.1861 9.26494 9.31485C6.15298 12.4424 4.40503 16.6852 4.40503 21.109H5.77258C5.77258 17.0497 7.37596 13.1573 10.2319 10.2859C13.0867 7.41567 16.9595 5.80245 20.997 5.80245C25.0345 5.80245 28.906 7.41448 31.762 10.2859C34.6168 13.1561 36.2214 17.0497 36.2214 21.109H37.5889C37.5889 16.6852 35.841 12.4424 32.729 9.31485C29.6171 6.1861 25.3983 4.42871 20.9982 4.42871H20.9958Z" fill="#FE4F02"/>
<path d="M17.7746 19.8694V18.2407L17.7782 18.2204C17.79 18.1394 17.8078 18.0536 17.8327 17.9571C17.86 17.8523 17.9014 17.7582 17.9595 17.6712C18.0259 17.5794 18.1147 17.5056 18.225 17.4543C18.334 17.4019 18.4667 17.3769 18.6326 17.3769H22.7222C22.932 17.3769 23.1619 17.3388 23.4072 17.2637C23.6525 17.1851 23.8836 17.0612 24.0933 16.8955C24.3007 16.7275 24.4773 16.5059 24.616 16.2367C24.7558 15.9686 24.8269 15.6326 24.8269 15.2359V14.4876C24.8269 14.3482 24.8091 14.1993 24.7736 14.0325C24.7428 13.8681 24.6906 13.7108 24.616 13.5511C24.5484 13.3951 24.4572 13.2414 24.3446 13.096C24.2356 12.9542 24.1005 12.8279 23.9428 12.7183C23.7947 12.6087 23.6158 12.5193 23.4119 12.4526C23.2093 12.3859 22.977 12.3525 22.7222 12.3525H17.2734V13.6107H22.7222C22.9889 13.6107 23.1986 13.6893 23.3468 13.8454C23.4937 13.9991 23.5672 14.2195 23.5672 14.4983V15.2347C23.5672 15.5051 23.4925 15.7208 23.3468 15.8745C23.2034 16.0258 22.9889 16.1032 22.7104 16.1032H18.6338C18.3755 16.1032 18.1408 16.1366 17.9382 16.2033C17.7355 16.2688 17.553 16.3594 17.3978 16.4714C17.2461 16.5786 17.1146 16.7037 17.0067 16.8431C16.9001 16.9861 16.81 17.141 16.7401 17.3018C16.6714 17.4615 16.618 17.6259 16.5825 17.7903C16.5517 17.9524 16.5363 18.1072 16.5363 18.2514V21.1288H24.8293V19.8706H17.7782L17.7746 19.8694Z" fill="#323232"/>
<path d="M16.535 30.2829H15.331V28.6447H10.6441V30.2829H9.44006V26.9457C9.44006 26.4583 9.52302 26.0104 9.69011 25.6005C9.8572 25.1906 10.0883 24.8392 10.3846 24.5437C10.6808 24.2494 11.0316 24.0194 11.4357 23.855C11.8398 23.6906 12.2818 23.6084 12.7594 23.6084H15.9282C16.0112 23.6084 16.0906 23.6239 16.1641 23.6549C16.2375 23.6858 16.3027 23.7287 16.3584 23.7847C16.4141 23.8407 16.4568 23.9051 16.4876 23.9801C16.5184 24.054 16.5338 24.1338 16.5338 24.2172V30.2817H16.535V30.2829ZM10.6453 27.4341H15.3322V24.8189H12.7606C12.7239 24.8189 12.6445 24.8249 12.5248 24.838C12.4074 24.8475 12.27 24.8737 12.1124 24.9166C11.9583 24.9607 11.7948 25.0262 11.6217 25.1168C11.4487 25.2061 11.2899 25.3312 11.1454 25.4885C11.0008 25.647 10.8799 25.8448 10.7839 26.0842C10.6915 26.3201 10.6453 26.6073 10.6453 26.9457V27.4341ZM23.9368 24.8189H21.2847V30.2829H20.0807V24.8189H17.4238V23.6084H23.9368V24.8189Z" fill="#323232"/>
<path d="M32.5511 30.2837H31.3388V26.309L29.2045 30.0835C29.1524 30.18 29.0777 30.2527 28.9818 30.3027C28.8893 30.3528 28.7886 30.3766 28.6807 30.3766C28.5729 30.3766 28.4769 30.3516 28.3845 30.3027C28.2956 30.2527 28.2245 30.18 28.1712 30.0835L26.0286 26.309V30.2837H24.8246V24.1263C24.8246 23.9869 24.8649 23.863 24.9455 23.7545C25.0284 23.6461 25.1374 23.5734 25.269 23.5353C25.3342 23.5198 25.3981 23.5151 25.4633 23.521C25.5285 23.5246 25.5901 23.5377 25.6482 23.5627C25.7098 23.5842 25.7655 23.6175 25.8153 23.6604C25.8651 23.7009 25.9065 23.751 25.9397 23.8093L28.6796 28.5978L31.4206 23.8093C31.4917 23.6914 31.5889 23.608 31.7121 23.5579C31.8389 23.5079 31.9693 23.5008 32.1056 23.5341C32.2347 23.571 32.3414 23.6449 32.4255 23.7533C32.5085 23.8618 32.55 23.9857 32.55 24.1251V30.2825H32.5511V30.2837Z" fill="#323232"/>
</svg>
