<svg width="236" height="50" viewBox="0 0 236 50" fill="none" xmlns="http://www.w3.org/2000/svg">
<path d="M47.8204 20.875C47.3914 20.875 47.005 20.6147 46.8414 20.2171L45.543 17.0676L44.2369 13.8947C44.0733 13.4958 44.1635 13.0373 44.4662 12.733C44.8797 12.3173 44.8797 11.6413 44.4662 11.2256L39.9269 6.66179C39.5134 6.24607 38.841 6.24607 38.4275 6.66179C38.1248 6.96612 37.6688 7.05807 37.2721 6.89231L34.1163 5.57912L30.9836 4.27371C30.5869 4.10923 30.3292 3.71942 30.3292 3.28946C30.3292 2.70021 29.8539 2.22363 29.2691 2.22363H22.8492C22.2631 2.22363 21.7891 2.70151 21.7891 3.28946C21.7891 3.72072 21.5302 4.10923 21.1348 4.27371L18.0021 5.57912L14.8462 6.89231C14.4495 7.05678 13.9935 6.96612 13.6908 6.66179C13.2773 6.24607 12.6049 6.24607 12.1915 6.66179L7.65218 11.2256C7.2387 11.6413 7.2387 12.3173 7.65218 12.733C7.95489 13.0373 8.04634 13.4958 7.88146 13.8947L6.57275 17.0727L5.27692 20.2171C5.11333 20.616 4.72561 20.875 4.29796 20.875C3.71188 20.875 3.23785 21.3529 3.23785 21.9408V28.3954C3.23785 28.9847 3.71316 29.4612 4.29796 29.4612C4.7269 29.4612 5.11333 29.7215 5.27692 30.1191L6.57533 33.2687L7.88146 36.4416C8.04505 36.8405 7.95489 37.2989 7.65218 37.6032C7.2387 38.019 7.2387 38.695 7.65218 39.1107L12.1915 43.6745C12.6049 44.0902 13.2773 44.0902 13.6908 43.6745C13.9935 43.3701 14.4495 43.2782 14.8462 43.4439L18.0021 44.7571L21.1348 46.0625C21.5315 46.227 21.7891 46.6168 21.7891 47.0468C21.7891 47.636 22.2644 48.1126 22.8492 48.1126H29.2691C29.8552 48.1126 30.3292 47.6347 30.3292 47.0468C30.3292 46.6155 30.5881 46.227 30.9836 46.0625L34.1163 44.7571L37.2721 43.4439C37.6688 43.2795 38.1248 43.3701 38.4275 43.6745C38.841 44.0902 39.5134 44.0902 39.9269 43.6745L44.4662 39.1107C44.8797 38.695 44.8797 38.019 44.4662 37.6032C44.1635 37.2989 44.072 36.8405 44.2369 36.4416L45.5456 33.2635L46.8414 30.1191C47.005 29.7202 47.3927 29.4612 47.8204 29.4612C48.4065 29.4612 48.8805 28.9834 48.8805 28.3954V25.1681V21.9408C48.8805 21.3516 48.4052 20.875 47.8204 20.875ZM26.0592 43.2989C16.0996 43.2989 8.02573 35.1815 8.02573 25.1681C8.02573 15.1548 16.0996 7.03735 26.0592 7.03735C36.0188 7.03735 44.0926 15.1548 44.0926 25.1681C44.0926 35.1815 36.0188 43.2989 26.0592 43.2989Z" fill="#323232"/>
<path d="M26.0592 8.53223C21.6706 8.53223 17.4624 10.2844 14.3581 13.4055C11.255 16.5253 9.51093 20.7575 9.51093 25.1698H10.9716C10.9716 21.1189 12.5405 17.3088 15.3898 14.4442C18.2391 11.5795 22.0274 10.0021 26.0579 10.0021C30.0884 10.0021 33.8767 11.5795 36.726 14.4442C39.5752 17.3088 41.1442 21.1176 41.1442 25.1698H42.6049C42.6049 20.7575 40.8621 16.5266 37.7577 13.4055C34.6547 10.2857 30.4452 8.53223 26.0566 8.53223H26.0592Z" fill="#FE4F02"/>
<path d="M26.0593 7.03711C21.2766 7.03711 16.6897 8.94731 13.3084 12.3481C9.92583 15.7476 8.02588 20.3593 8.02588 25.1679H9.51235C9.51235 20.7556 11.2552 16.5247 14.3595 13.4036C17.4625 10.2838 21.672 8.53031 26.0606 8.53031C30.4492 8.53031 34.6574 10.2825 37.7617 13.4036C40.8648 16.5234 42.6089 20.7556 42.6089 25.1679H44.0953C44.0953 20.3593 42.1954 15.7476 38.8128 12.3481C35.4303 8.94731 30.8446 7.03711 26.0619 7.03711H26.0593Z" fill="#FE4F02"/>
<path d="M22.5581 23.8209V22.0506L22.562 22.0285C22.5749 21.9405 22.5942 21.8472 22.6212 21.7423C22.6508 21.6284 22.6959 21.5261 22.759 21.4315C22.8312 21.3318 22.9278 21.2515 23.0476 21.1958C23.1661 21.1388 23.3104 21.1116 23.4907 21.1116H27.9359C28.1639 21.1116 28.4138 21.0702 28.6805 20.9886C28.9471 20.9031 29.1983 20.7685 29.4263 20.5884C29.6517 20.4058 29.8436 20.165 29.9943 19.8723C30.1463 19.5809 30.2236 19.2157 30.2236 18.7844V17.9711C30.2236 17.8196 30.2043 17.6577 30.1656 17.4764C30.1322 17.2977 30.0755 17.1268 29.9943 16.9532C29.9209 16.7836 29.8217 16.6165 29.6993 16.4585C29.5808 16.3044 29.434 16.1671 29.2627 16.048C29.1017 15.9288 28.9072 15.8317 28.6856 15.7592C28.4653 15.6867 28.2129 15.6504 27.9359 15.6504H22.0132V17.018H27.9359C28.2258 17.018 28.4538 17.1034 28.6148 17.2731C28.7745 17.4402 28.8543 17.6797 28.8543 17.9828V18.7831C28.8543 19.0771 28.7732 19.3115 28.6148 19.4786C28.4589 19.643 28.2258 19.7272 27.9231 19.7272H23.492C23.2112 19.7272 22.9561 19.7635 22.7359 19.836C22.5156 19.9072 22.3172 20.0057 22.1485 20.1274C21.9836 20.244 21.8406 20.3799 21.7234 20.5315C21.6075 20.6869 21.5096 20.8552 21.4336 21.0301C21.3589 21.2036 21.3009 21.3823 21.2623 21.561C21.2288 21.7372 21.212 21.9055 21.212 22.0622V25.1898H30.2262V23.8222H22.562L22.5581 23.8209Z" fill="#323232"/>
<path d="M21.2106 35.1397H19.9019V33.359H14.8074V35.1397H13.4987V31.5122C13.4987 30.9825 13.5889 30.4956 13.7705 30.0501C13.9521 29.6046 14.2033 29.2226 14.5253 28.9014C14.8474 28.5815 15.2286 28.3316 15.6679 28.1528C16.1071 27.9741 16.5876 27.8848 17.1067 27.8848H20.5511C20.6412 27.8848 20.7275 27.9016 20.8074 27.9353C20.8873 27.9689 20.9581 28.0156 21.0187 28.0764C21.0792 28.1373 21.1256 28.2072 21.1591 28.2888C21.1926 28.3691 21.2093 28.4559 21.2093 28.5465V35.1384H21.2106V35.1397ZM14.8087 32.0432H19.9032V29.2005H17.108C17.0681 29.2005 16.9817 29.207 16.8516 29.2213C16.7241 29.2316 16.5747 29.2601 16.4034 29.3067C16.2359 29.3547 16.0582 29.4259 15.8701 29.5243C15.6821 29.6214 15.5094 29.7574 15.3523 29.9284C15.1952 30.1006 15.0638 30.3156 14.9594 30.5759C14.859 30.8323 14.8087 31.1444 14.8087 31.5122V32.0432ZM29.2561 29.2005H26.3733V35.1397H25.0646V29.2005H22.1767V27.8848H29.2561V29.2005Z" fill="#323232"/>
<path d="M38.6196 35.14H37.3018V30.8197L34.982 34.9224C34.9253 35.0273 34.8441 35.1063 34.7398 35.1607C34.6393 35.2151 34.5298 35.241 34.4126 35.241C34.2954 35.241 34.1911 35.2138 34.0906 35.1607C33.994 35.1063 33.9167 35.0273 33.8587 34.9224L31.5298 30.8197V35.14H30.2211V28.4471C30.2211 28.2956 30.2649 28.1609 30.3525 28.0431C30.4427 27.9252 30.5612 27.8462 30.7042 27.8048C30.775 27.7879 30.8446 27.7827 30.9154 27.7892C30.9863 27.7931 31.0532 27.8074 31.1164 27.8346C31.1833 27.8579 31.2439 27.8941 31.298 27.9407C31.3521 27.9848 31.3972 28.0392 31.4332 28.1026L34.4113 33.3075L37.3907 28.1026C37.468 27.9744 37.5736 27.8838 37.7076 27.8294C37.8454 27.775 37.9871 27.7672 38.1352 27.8035C38.2756 27.8436 38.3916 27.9239 38.483 28.0418C38.5732 28.1596 38.6183 28.2943 38.6183 28.4458V35.1387H38.6196V35.14Z" fill="#323232"/>
<path d="M83.1175 23.2629C83.1175 23.5233 83.0711 23.8018 82.9796 24.1011C82.8933 24.399 82.7477 24.6763 82.5428 24.9302C82.3431 25.1854 82.0815 25.3991 81.7581 25.5727C81.4347 25.7411 81.0391 25.8253 80.5688 25.8253H72.5867C72.4359 25.8253 72.2955 25.7981 72.1666 25.7437C72.0378 25.6893 71.9244 25.6167 71.8277 25.5248C71.7363 25.4276 71.6628 25.3136 71.6087 25.1828C71.5559 25.0532 71.5275 24.912 71.5275 24.7605V15.2312C71.5275 15.0848 71.5546 14.9462 71.6087 14.8166C71.6628 14.6871 71.7363 14.5731 71.8277 14.4747C71.9244 14.3775 72.0378 14.3011 72.1666 14.2467C72.2955 14.1922 72.4359 14.165 72.5867 14.165H79.6218C79.8808 14.165 80.1591 14.2117 80.4555 14.3037C80.7518 14.3956 81.0275 14.5446 81.2801 14.7506C81.5391 14.9514 81.7517 15.2143 81.9192 15.5395C82.0918 15.8647 82.1782 16.2637 82.1782 16.7352V17.1342C82.1782 17.5086 82.1163 17.9115 81.9926 18.3454C81.8689 18.7742 81.6692 19.1797 81.3935 19.5644C81.6306 19.7108 81.8522 19.887 82.057 20.093C82.2684 20.299 82.4513 20.5373 82.6072 20.8081C82.7644 21.0788 82.8868 21.3858 82.9796 21.7265C83.0711 22.0685 83.1175 22.4442 83.1175 22.8562V23.2629ZM81.0159 22.8562C81.0159 22.5802 80.9734 22.3328 80.8871 22.1165C80.8008 21.8936 80.6797 21.7045 80.5237 21.5478C80.3666 21.391 80.1784 21.2718 79.9568 21.1902C79.7352 21.1034 79.4878 21.0607 79.2133 21.0607H74.4743V18.931H78.2676C78.5421 18.931 78.7907 18.8908 79.0111 18.8092C79.2327 18.7224 79.4208 18.6006 79.5767 18.4439C79.7326 18.2871 79.8512 18.0993 79.9323 17.883C80.0187 17.6601 80.0612 17.4114 80.0612 17.1355V16.7365C80.0612 16.4334 79.9156 16.2818 79.6244 16.2818H73.6316V23.7137H80.5701C80.6075 23.7137 80.6539 23.7111 80.708 23.706C80.7621 23.7008 80.8111 23.6839 80.8536 23.6567C80.8974 23.6295 80.9348 23.5842 80.967 23.5181C80.9992 23.4534 81.0159 23.364 81.0159 23.25V22.86V22.8562Z" fill="#323232"/>
<path d="M94.2304 21.0594H87.5909V18.9297H94.2304V21.0594ZM95.1775 25.824H87.5921C87.3009 25.824 86.9827 25.7722 86.6374 25.6699C86.2921 25.5662 85.9712 25.3991 85.6749 25.1659C85.3837 24.9276 85.1376 24.6206 84.9391 24.2475C84.7446 23.8679 84.6479 23.4041 84.6479 22.8575V15.2312C84.6479 15.0848 84.675 14.9462 84.7291 14.8166C84.7832 14.6871 84.8567 14.5731 84.9482 14.4747C85.0448 14.3775 85.1582 14.3011 85.287 14.2467C85.4159 14.1922 85.5563 14.165 85.7071 14.165H95.1775V16.2792H86.7508V22.8575C86.7508 23.1334 86.8242 23.3458 86.9685 23.4922C87.1141 23.6386 87.3267 23.7112 87.6076 23.7112H95.1775V25.8253V25.824Z" fill="#323232"/>
<path d="M113.98 25.8234H111.877V22.9617H104.485V25.8234H102.382V19.9939C102.382 19.1428 102.528 18.359 102.819 17.6439C103.109 16.9289 103.514 16.3135 104.033 15.7979C104.551 15.2823 105.162 14.8821 105.869 14.5945C106.575 14.3069 107.346 14.1631 108.182 14.1631H112.921C113.067 14.1631 113.204 14.1903 113.333 14.2447C113.462 14.2991 113.575 14.3742 113.672 14.4727C113.77 14.5699 113.845 14.6839 113.899 14.8147C113.952 14.9442 113.98 15.0828 113.98 15.2292V25.8234ZM104.485 20.8476H111.877V16.2785H108.181C108.116 16.2785 107.978 16.2889 107.768 16.3109C107.562 16.3278 107.324 16.3731 107.048 16.4495C106.779 16.526 106.493 16.6426 106.19 16.7993C105.888 16.9561 105.61 17.1737 105.358 17.4496C105.104 17.7256 104.894 18.0727 104.726 18.4899C104.565 18.9018 104.484 19.4031 104.484 19.9939V20.8476H104.485Z" fill="#323232"/>
<path d="M126.911 16.2792H122.278V25.8253H120.175V16.2792H115.533V14.165H126.911V16.2792Z" fill="#323232"/>
<path d="M141.963 25.8242H139.845V18.8806L136.117 25.4744C136.025 25.6428 135.895 25.7698 135.729 25.8566C135.567 25.9433 135.392 25.9861 135.203 25.9861C135.015 25.9861 134.848 25.9433 134.685 25.8566C134.528 25.7698 134.406 25.6428 134.313 25.4744L130.569 18.8806V25.8242H128.466V15.0668C128.466 14.8233 128.537 14.6056 128.677 14.4165C128.823 14.2274 129.011 14.0991 129.244 14.0344C129.358 14.0071 129.471 13.9994 129.583 14.0097C129.696 14.0149 129.805 14.0395 129.906 14.0836C130.013 14.1211 130.111 14.1781 130.196 14.2546C130.283 14.3245 130.356 14.4113 130.415 14.515L135.203 22.8822L139.991 14.515C140.115 14.309 140.285 14.1626 140.5 14.0758C140.722 13.989 140.95 13.9761 141.188 14.0356C141.415 14.1004 141.601 14.2287 141.746 14.4178C141.892 14.6069 141.964 14.8246 141.964 15.0681V25.8255L141.963 25.8242Z" fill="#323232"/>
<path d="M156.584 21.1097C156.584 21.8196 156.463 22.4725 156.219 23.0697C155.977 23.6656 155.64 24.1812 155.209 24.6152C154.778 25.0492 154.266 25.3873 153.672 25.6321C153.085 25.8705 152.443 25.9897 151.748 25.9897H148.901C148.205 25.9897 147.561 25.8705 146.968 25.6321C146.374 25.3886 145.863 25.0492 145.431 24.6152C145.001 24.1812 144.66 23.6669 144.412 23.0697C144.17 22.4738 144.048 21.8209 144.048 21.1097V18.8816C144.048 18.1768 144.17 17.5265 144.412 16.9306C144.659 16.3295 144.999 15.814 145.431 15.3852C145.863 14.9512 146.374 14.6131 146.968 14.3682C147.561 14.1247 148.205 14.0029 148.901 14.0029H151.748C152.444 14.0029 153.085 14.1247 153.672 14.3682C154.266 14.6118 154.778 14.9512 155.209 15.3852C155.641 15.814 155.977 16.3282 156.219 16.9306C156.463 17.5265 156.584 18.1768 156.584 18.8816V21.1097ZM154.481 18.8816C154.481 18.4644 154.414 18.0875 154.279 17.7519C154.15 17.4099 153.963 17.1211 153.721 16.8814C153.484 16.6379 153.195 16.45 152.856 16.3205C152.521 16.1845 152.153 16.1171 151.748 16.1171H148.901C148.491 16.1171 148.116 16.1845 147.777 16.3205C147.442 16.45 147.154 16.6379 146.911 16.8814C146.669 17.1198 146.481 17.4099 146.346 17.7519C146.217 18.0875 146.152 18.4644 146.152 18.8816V21.1097C146.152 21.5269 146.217 21.9064 146.346 22.2484C146.481 22.5839 146.669 22.8741 146.911 23.119C147.154 23.3573 147.442 23.5439 147.777 23.6799C148.116 23.8094 148.491 23.8755 148.901 23.8755H151.732C152.141 23.8755 152.512 23.8107 152.847 23.6799C153.186 23.5439 153.478 23.3573 153.721 23.119C153.963 22.8754 154.15 22.5852 154.279 22.2484C154.413 21.9064 154.481 21.5269 154.481 21.1097V18.8816Z" fill="#323232"/>
<path d="M169.046 25.8234H161.461C161.266 25.8234 161.056 25.8013 160.831 25.7586C160.609 25.7094 160.389 25.6368 160.167 25.5397C159.951 25.4425 159.743 25.3168 159.543 25.1653C159.345 25.0085 159.166 24.8207 159.01 24.6043C158.859 24.3815 158.738 24.1276 158.647 23.84C158.555 23.5473 158.509 23.2195 158.509 22.8568V17.1322C158.509 16.9366 158.531 16.7281 158.573 16.5065C158.621 16.2785 158.694 16.057 158.791 15.8394C158.888 15.6166 159.015 15.4054 159.171 15.2046C159.328 15.0038 159.514 14.8276 159.729 14.6761C159.951 14.5193 160.203 14.3937 160.489 14.3017C160.775 14.2097 161.099 14.1631 161.459 14.1631H169.045V16.2772H161.459C161.185 16.2772 160.975 16.3511 160.829 16.4962C160.684 16.6426 160.61 16.8589 160.61 17.1465V22.8542C160.61 23.125 160.684 23.3361 160.829 23.489C160.98 23.6354 161.19 23.7079 161.459 23.7079H169.045V25.8221L169.046 25.8234Z" fill="#323232"/>
<path d="M198.523 21.0594H191.884V18.9297H198.523V21.0594ZM199.469 25.824H191.884C191.592 25.824 191.274 25.7722 190.929 25.6699C190.584 25.5662 190.263 25.3991 189.966 25.1659C189.675 24.9276 189.43 24.6206 189.231 24.2475C189.036 23.8679 188.939 23.4041 188.939 22.8575V15.2312C188.939 15.0848 188.967 14.9462 189.021 14.8166C189.075 14.6871 189.148 14.5731 189.24 14.4747C189.336 14.3775 189.45 14.3011 189.579 14.2467C189.707 14.1922 189.848 14.165 189.999 14.165H199.469V16.2792H191.042V22.8575C191.042 23.1334 191.116 23.3458 191.26 23.4922C191.406 23.6386 191.618 23.7112 191.899 23.7112H199.469V25.8253V25.824Z" fill="#323232"/>
<path d="M213.059 18.0831C213.059 18.565 213 18.9964 212.882 19.3759C212.763 19.7555 212.601 20.091 212.396 20.3838C212.196 20.6714 211.964 20.9175 211.7 21.1235C211.436 21.3295 211.159 21.5005 210.868 21.6352C210.582 21.7647 210.29 21.8606 209.994 21.9202C209.703 21.9798 209.428 22.0096 209.169 22.0096H204.415V19.8954H209.169C209.434 19.8734 209.673 19.819 209.89 19.7322C210.111 19.6402 210.299 19.5184 210.457 19.3669C210.619 19.2153 210.741 19.0339 210.829 18.8215C210.915 18.6052 210.958 18.3577 210.958 18.0818V16.7488C210.958 16.6296 210.941 16.5402 210.909 16.4806C210.882 16.4159 210.844 16.3692 210.795 16.342C210.753 16.3096 210.704 16.2902 210.65 16.285C210.602 16.2798 210.556 16.2772 210.512 16.2772H203.574V25.8234H201.471V15.2292C201.471 15.0828 201.498 14.9442 201.552 14.8147C201.605 14.6851 201.678 14.5711 201.77 14.4727C201.866 14.3755 201.98 14.2991 202.109 14.2447C202.237 14.1903 202.378 14.1631 202.529 14.1631H210.511C210.98 14.1631 211.377 14.2499 211.7 14.4235C212.023 14.5919 212.285 14.8056 212.485 15.066C212.69 15.3212 212.835 15.5971 212.921 15.8951C213.013 16.193 213.059 16.4729 213.059 16.7332V18.0831Z" fill="#323232"/>
<path d="M187.173 18.0831C187.173 18.565 187.113 18.9964 186.995 19.3759C186.876 19.7555 186.714 20.091 186.509 20.3838C186.309 20.6714 186.077 20.9175 185.813 21.1235C185.549 21.3295 185.272 21.5005 184.981 21.6352C184.695 21.7647 184.404 21.8606 184.107 21.9202C183.816 21.9798 183.542 22.0096 183.283 22.0096H180.63V19.8954H183.283C183.547 19.8734 183.786 19.819 184.003 19.7322C184.225 19.6402 184.413 19.5184 184.57 19.3669C184.732 19.2153 184.855 19.0339 184.942 18.8215C185.029 18.6052 185.071 18.3577 185.071 18.0818V16.7488C185.071 16.6296 185.054 16.5402 185.022 16.4806C184.995 16.4159 184.958 16.3692 184.909 16.342C184.866 16.3096 184.817 16.2902 184.763 16.285C184.715 16.2798 184.669 16.2772 184.625 16.2772H179.788V25.8234H177.685V15.2292C177.685 15.0828 177.713 14.9442 177.767 14.8147C177.819 14.6851 177.893 14.5711 177.984 14.4727C178.081 14.3755 178.194 14.2991 178.323 14.2447C178.452 14.1903 178.593 14.1631 178.743 14.1631H184.623C185.092 14.1631 185.489 14.2499 185.812 14.4235C186.135 14.5919 186.397 14.8056 186.597 15.066C186.802 15.3212 186.947 15.5971 187.033 15.8951C187.125 16.193 187.171 16.4729 187.171 16.7332V18.0831H187.173Z" fill="#323232"/>
<path d="M170.303 16.7332C170.303 16.4729 170.349 16.1943 170.441 15.8951C170.527 15.5971 170.673 15.3199 170.878 15.066C171.077 14.8056 171.339 14.5919 171.662 14.4235C171.986 14.2499 172.381 14.1631 172.852 14.1631H178.731C178.882 14.1631 179.022 14.1903 179.151 14.2447C179.28 14.2991 179.393 14.3742 179.49 14.4727C179.581 14.5699 179.655 14.6839 179.708 14.8147C179.762 14.9442 179.789 15.0828 179.789 15.2292V25.8234H177.686V16.2772H172.849C172.805 16.2772 172.76 16.2798 172.711 16.285C172.657 16.2902 172.608 16.3096 172.566 16.342C172.517 16.3692 172.479 16.4159 172.452 16.4806C172.42 16.5402 172.403 16.6296 172.403 16.7488V18.0818C172.403 18.3577 172.446 18.6052 172.532 18.8215C172.618 19.0327 172.742 19.214 172.904 19.3669C173.062 19.5184 173.25 19.6402 173.471 19.7322C173.688 19.819 173.926 19.8734 174.192 19.8954H176.845V22.0096H174.192C173.933 22.0096 173.658 21.9798 173.367 21.9202C173.071 21.8606 172.779 21.766 172.493 21.6352C172.202 21.4992 171.925 21.3295 171.661 21.1235C171.397 20.9175 171.165 20.6714 170.965 20.3838C170.76 20.091 170.598 19.7555 170.48 19.3759C170.361 18.9964 170.302 18.565 170.302 18.0831V16.7332H170.303Z" fill="#323232"/>
<path d="M226.719 21.9046C226.719 21.4227 226.659 20.9914 226.541 20.6118C226.422 20.2322 226.261 19.8967 226.056 19.6039C225.857 19.3164 225.625 19.0702 225.361 18.8642C225.097 18.6583 224.818 18.4873 224.527 18.3525C224.242 18.223 223.95 18.1271 223.653 18.0675C223.362 18.008 223.088 17.9782 222.829 17.9782H218.074V20.0923H222.829C223.093 20.1143 223.333 20.1688 223.549 20.2543C223.771 20.3462 223.959 20.468 224.115 20.6196C224.277 20.7711 224.401 20.9525 224.487 21.1649C224.573 21.3813 224.616 21.6287 224.616 21.9046V23.2377C224.616 23.3568 224.599 23.4462 224.567 23.5058C224.54 23.5706 224.503 23.6172 224.454 23.6444C224.411 23.6768 224.362 23.6962 224.308 23.7014C224.259 23.7066 224.214 23.7092 224.17 23.7092H217.232V14.1631H215.129V24.7572C215.129 24.9036 215.156 25.0422 215.21 25.1717C215.264 25.3013 215.338 25.4153 215.429 25.5137C215.526 25.6109 215.639 25.6873 215.768 25.7417C215.897 25.7962 216.037 25.8234 216.188 25.8234H224.17C224.639 25.8234 225.036 25.7366 225.359 25.563C225.683 25.3946 225.944 25.1808 226.144 24.9204C226.349 24.6652 226.495 24.3893 226.581 24.0914C226.672 23.7934 226.719 23.5136 226.719 23.2545V21.9046Z" fill="#323232"/>
<path d="M56.0168 25.8234V23.7416L57.1456 23.7092V19.9939C57.1456 19.1428 57.2912 18.359 57.5824 17.6439C57.8736 16.9289 58.2781 16.3135 58.7948 15.7979C59.3128 15.2823 59.9248 14.8821 60.6309 14.5945C61.337 14.3069 62.1075 14.1631 62.9438 14.1631H67.6828C67.8284 14.1631 67.9663 14.1903 68.0951 14.2447C68.224 14.2991 68.3374 14.3742 68.4353 14.4727C68.5319 14.5699 68.6079 14.6839 68.6621 14.8147C68.7162 14.9442 68.7432 15.0828 68.7432 15.2292V23.7429H70.0961V25.8247H56.0168V25.8234ZM59.2484 23.7105H66.6404V16.2785H62.945C62.8806 16.2785 62.7428 16.2889 62.5327 16.3109C62.3279 16.3278 62.0882 16.3731 61.8125 16.4495C61.5432 16.526 61.2571 16.6426 60.9556 16.7993C60.6541 16.9561 60.3758 17.1737 60.1233 17.4496C59.8694 17.7256 59.6594 18.0727 59.4919 18.4899C59.3295 18.9018 59.2497 19.4031 59.2497 19.9939V23.7092L59.2484 23.7105Z" fill="#323232"/>
<path d="M228.519 14.168H230.59V25.8244H228.519V14.168Z" fill="#323232"/>
<path d="M58.2643 36.2993C56.8366 36.2993 56.1241 35.7526 56.1241 34.658V32.9027C56.1241 31.8015 56.8379 31.251 58.2643 31.251H61.1234C61.4095 31.251 61.5525 31.3935 61.5525 31.6772C61.5525 31.9609 61.4095 32.1034 61.1234 32.1034H58.2308C57.4152 32.1034 57.008 32.3663 57.008 32.8923V34.6684C57.008 35.1943 57.4152 35.4573 58.2308 35.4573H61.1234C61.4095 35.4573 61.5525 35.5959 61.5525 35.8731C61.5525 36.1503 61.4095 36.2993 61.1234 36.2993H58.2643Z" fill="#323232"/>
<path d="M64.6454 32.1034H63.0915C62.8106 32.1034 62.6702 31.9622 62.6702 31.6772C62.6702 31.3922 62.8106 31.251 63.0915 31.251H67.0832C67.3641 31.251 67.5046 31.3935 67.5046 31.6772C67.5046 31.9609 67.3641 32.1034 67.0832 32.1034H65.5293V35.9159C65.5293 36.2073 65.3837 36.3524 65.0912 36.3524C64.7988 36.3524 64.6454 36.2073 64.6454 35.9159V32.1034Z" fill="#323232"/>
<path d="M70.7941 36.2993C69.3665 36.2993 68.6539 35.7526 68.6539 34.658V32.9027C68.6539 31.8015 69.3678 31.251 70.7941 31.251H72.3893C73.8169 31.251 74.5294 31.8015 74.5294 32.9027V34.658C74.5294 35.7526 73.8156 36.2993 72.3893 36.2993H70.7941ZM73.6455 32.8923C73.6455 32.3663 73.2345 32.1034 72.4137 32.1034H70.7606C69.945 32.1034 69.5378 32.3663 69.5378 32.8923V34.6684C69.5378 35.1943 69.945 35.4573 70.7606 35.4573H72.4137C73.2345 35.4573 73.6455 35.1943 73.6455 34.6684V32.8923Z" fill="#323232"/>
<path d="M85.7469 36.2987C84.3257 36.2987 83.6144 35.752 83.6144 34.6574V31.6351C83.6144 31.3437 83.76 31.1986 84.0525 31.1986C84.345 31.1986 84.4906 31.3437 84.4906 31.6351V34.6678C84.4906 35.1937 84.8784 35.4567 85.6554 35.4567H86.9697V31.6338C86.9697 31.3424 87.1127 31.1973 87.3987 31.1973C87.6848 31.1973 87.8291 31.3424 87.8291 31.6338V35.4567H89.1021C89.8842 35.4567 90.2759 35.1937 90.2759 34.6678V31.6351C90.2759 31.3437 90.4215 31.1986 90.714 31.1986C91.0065 31.1986 91.1521 31.3437 91.1521 31.6351V34.6574C91.1521 35.752 90.4408 36.2987 89.0196 36.2987H85.7469Z" fill="#323232"/>
<path d="M97.7394 32.4665L93.6149 36.1429C93.5376 36.2129 93.4693 36.2647 93.4087 36.2984C93.3482 36.3334 93.2593 36.3502 93.1446 36.3502C92.8856 36.3502 92.7568 36.2051 92.7568 35.9136V31.6244C92.7568 31.3407 92.8998 31.1982 93.1858 31.1982C93.4719 31.1982 93.6317 31.3407 93.6317 31.6244V35.0729L97.7638 31.3964C97.8347 31.3343 97.903 31.2863 97.9661 31.2514C98.0293 31.2164 98.1027 31.1995 98.1852 31.1995C98.4712 31.1995 98.6142 31.3446 98.6142 31.6361V35.9149C98.6142 36.2064 98.4686 36.3515 98.1762 36.3515C97.8837 36.3515 97.7381 36.2064 97.7381 35.9149V32.4665H97.7394Z" fill="#323232"/>
<path d="M105.186 34.2008H101.078V35.9146C101.078 36.2061 100.932 36.3512 100.64 36.3512C100.347 36.3512 100.202 36.2061 100.202 35.9146V31.6358C100.202 31.3443 100.347 31.1992 100.64 31.1992C100.932 31.1992 101.078 31.3443 101.078 31.6358V33.36H105.186V31.6358C105.186 31.3443 105.331 31.1992 105.624 31.1992C105.916 31.1992 106.062 31.3443 106.062 31.6358V35.9146C106.062 36.2061 105.916 36.3512 105.624 36.3512C105.331 36.3512 105.186 36.2061 105.186 35.9146V34.2008Z" fill="#323232"/>
<path d="M109.749 36.2983C108.321 36.2983 107.609 35.7517 107.609 34.657V32.9017C107.609 31.8006 108.322 31.25 109.749 31.25H111.344C112.772 31.25 113.484 31.8006 113.484 32.9017V34.657C113.484 35.7517 112.77 36.2983 111.344 36.2983H109.749ZM112.6 32.8913C112.6 32.3654 112.189 32.1024 111.368 32.1024H109.715C108.9 32.1024 108.492 32.3654 108.492 32.8913V34.6674C108.492 35.1933 108.9 35.4563 109.715 35.4563H111.368C112.189 35.4563 112.6 35.1933 112.6 34.6674V32.8913Z" fill="#323232"/>
<path d="M121.012 32.9328L118.872 36.1326C118.828 36.2025 118.774 36.2556 118.711 36.2932C118.648 36.3308 118.56 36.3502 118.451 36.3502C118.341 36.3502 118.255 36.3308 118.194 36.2932C118.134 36.2556 118.081 36.1986 118.037 36.1222L115.905 32.9432V35.9447C115.905 36.2142 115.759 36.3502 115.467 36.3502C115.174 36.3502 115.029 36.2155 115.029 35.9447V31.6348C115.029 31.3433 115.183 31.1982 115.491 31.1982C115.612 31.1982 115.706 31.2254 115.772 31.2811C115.838 31.3369 115.898 31.4029 115.954 31.4781L118.45 35.196L120.954 31.4781C121.003 31.3951 121.063 31.3278 121.132 31.276C121.2 31.2241 121.296 31.1982 121.417 31.1982C121.577 31.1982 121.695 31.2358 121.773 31.3122C121.85 31.3887 121.888 31.4962 121.888 31.6348V35.9447C121.888 36.2142 121.739 36.3502 121.443 36.3502C121.146 36.3502 121.012 36.2155 121.012 35.9447V32.9328Z" fill="#323232"/>
<path d="M125.558 36.2983C124.131 36.2983 123.418 35.7517 123.418 34.657V32.9017C123.418 31.8006 124.132 31.25 125.558 31.25H127.153C128.581 31.25 129.294 31.8006 129.294 32.9017V34.657C129.294 35.7517 128.58 36.2983 127.153 36.2983H125.558ZM128.41 32.8913C128.41 32.3654 127.999 32.1024 127.178 32.1024H125.525C124.709 32.1024 124.302 32.3654 124.302 32.8913V34.6674C124.302 35.1933 124.709 35.4563 125.525 35.4563H127.178C127.999 35.4563 128.41 35.1933 128.41 34.6674V32.8913Z" fill="#323232"/>
<path d="M135.824 34.2008H131.716V35.9146C131.716 36.2061 131.571 36.3512 131.278 36.3512C130.986 36.3512 130.84 36.2061 130.84 35.9146V31.6358C130.84 31.3443 130.986 31.1992 131.278 31.1992C131.571 31.1992 131.716 31.3443 131.716 31.6358V33.36H135.824V31.6358C135.824 31.3443 135.97 31.1992 136.262 31.1992C136.555 31.1992 136.7 31.3443 136.7 31.6358V35.9146C136.7 36.2061 136.555 36.3512 136.262 36.3512C135.97 36.3512 135.824 36.2061 135.824 35.9146V34.2008Z" fill="#323232"/>
<path d="M139.972 32.1024H138.418C138.137 32.1024 137.997 31.9612 137.997 31.6762C137.997 31.3912 138.137 31.25 138.418 31.25H142.41C142.691 31.25 142.831 31.3925 142.831 31.6762C142.831 31.9599 142.691 32.1024 142.41 32.1024H140.856V35.9149C140.856 36.2064 140.711 36.3515 140.418 36.3515C140.126 36.3515 139.972 36.2064 139.972 35.9149V32.1024Z" fill="#323232"/>
<path d="M144.568 36.299C143.389 36.299 142.799 35.8391 142.799 34.9181V34.326C142.799 33.4115 143.389 32.9555 144.568 32.9555H148.08V32.8C148.08 32.3155 147.741 32.0733 147.064 32.0733H145.899C145.623 32.0733 145.485 31.9385 145.485 31.6678C145.485 31.397 145.623 31.252 145.899 31.252H147.064C148.315 31.252 148.94 31.7675 148.94 32.8V34.8351C148.94 35.8119 148.339 36.3003 147.138 36.3003H144.568V36.299ZM147.088 35.4893C147.749 35.4893 148.08 35.2613 148.08 34.8041V33.6718H144.634C143.989 33.6718 143.667 33.883 143.667 34.3053V34.8455C143.667 35.2756 143.989 35.4893 144.634 35.4893H147.088Z" fill="#323232"/>
<path d="M153.882 34.3565L151.154 36.2051C151.082 36.2544 151.018 36.2906 150.96 36.3139C150.902 36.3386 150.828 36.3502 150.741 36.3502C150.614 36.3502 150.514 36.3139 150.439 36.2414C150.364 36.1689 150.327 36.0626 150.327 35.924C150.327 35.8411 150.345 35.7647 150.381 35.696C150.417 35.6274 150.479 35.5652 150.567 35.5095L153.394 33.7127L150.576 32.0506C150.482 31.9949 150.415 31.9353 150.373 31.8693C150.332 31.8032 150.312 31.7216 150.312 31.6257C150.312 31.4949 150.348 31.39 150.418 31.3135C150.491 31.2371 150.59 31.1995 150.716 31.1995C150.788 31.1995 150.857 31.2099 150.922 31.2306C150.988 31.2514 151.049 31.2799 151.104 31.3135L153.881 33.0689V31.6244C153.881 31.3407 154.021 31.1982 154.302 31.1982C154.583 31.1982 154.723 31.3407 154.723 31.6244V33.0792L157.5 31.3239C157.555 31.2889 157.616 31.2604 157.682 31.2358C157.747 31.2112 157.82 31.1995 157.897 31.1995C158.018 31.1995 158.115 31.2371 158.187 31.3135C158.258 31.39 158.294 31.4936 158.294 31.6257C158.294 31.7229 158.273 31.8045 158.232 31.8693C158.191 31.9341 158.124 31.9962 158.03 32.0506L155.212 33.7127L158.046 35.5095C158.201 35.6066 158.278 35.7452 158.278 35.9253C158.278 36.0639 158.241 36.1688 158.166 36.2427C158.091 36.3152 157.991 36.3515 157.865 36.3515C157.782 36.3515 157.709 36.3399 157.646 36.3152C157.582 36.2906 157.518 36.2543 157.451 36.2064L154.723 34.3578V35.9162C154.723 36.2077 154.583 36.3528 154.302 36.3528C154.021 36.3528 153.881 36.2077 153.881 35.9162V34.3578L153.882 34.3565Z" fill="#323232"/>
<path d="M168.793 36.299C167.614 36.299 167.024 35.8391 167.024 34.9181V34.326C167.024 33.4115 167.613 32.9555 168.793 32.9555H172.305V32.8C172.305 32.3155 171.967 32.0733 171.289 32.0733H170.124C169.848 32.0733 169.71 31.9385 169.71 31.6678C169.71 31.397 169.848 31.252 170.124 31.252H171.289C172.54 31.252 173.165 31.7675 173.165 32.8V34.8351C173.165 35.8119 172.564 36.3003 171.364 36.3003H168.793V36.299ZM171.315 35.4893C171.976 35.4893 172.307 35.2613 172.307 34.8041V33.6718H168.86C168.216 33.6718 167.892 33.883 167.892 34.3053V34.8455C167.892 35.2756 168.214 35.4893 168.86 35.4893H171.315Z" fill="#323232"/>
<path d="M180.521 35.1256C180.521 35.9081 179.849 36.2993 178.505 36.2993H175.108C174.849 36.2993 174.719 36.1814 174.719 35.9457V31.6046C174.719 31.3689 174.848 31.251 175.108 31.251H178.34C179.744 31.251 180.448 31.6668 180.448 32.4972V32.8716C180.448 33.2382 180.244 33.5219 179.836 33.7227C180.293 33.9299 180.521 34.2279 180.521 34.6165V35.1256ZM179.579 32.5503C179.579 32.1837 179.171 31.9997 178.357 31.9997H175.662C175.618 31.9997 175.597 32.0205 175.597 32.0619V33.3703H178.39C179.184 33.3703 179.581 33.2045 179.581 32.8716V32.549L179.579 32.5503ZM179.662 34.5958C179.662 34.2564 179.27 34.0867 178.488 34.0867H175.595V35.4884C175.595 35.5298 175.617 35.5505 175.661 35.5505H178.488C179.27 35.5505 179.662 35.377 179.662 35.0311V34.5945V34.5958Z" fill="#323232"/>
<path d="M183.496 32.1034H181.942C181.661 32.1034 181.521 31.9622 181.521 31.6772C181.521 31.3922 181.661 31.251 181.942 31.251H185.934C186.215 31.251 186.355 31.3935 186.355 31.6772C186.355 31.9609 186.215 32.1034 185.934 32.1034H184.38V35.9159C184.38 36.2073 184.234 36.3524 183.942 36.3524C183.649 36.3524 183.496 36.2073 183.496 35.9159V32.1034Z" fill="#323232"/>
<path d="M189.646 36.2993C188.219 36.2993 187.506 35.7526 187.506 34.658V32.9027C187.506 31.8015 188.22 31.251 189.646 31.251H191.241C192.668 31.251 193.382 31.8015 193.382 32.9027V34.658C193.382 35.7526 192.668 36.2993 191.241 36.2993H189.646ZM192.498 32.8923C192.498 32.3663 192.087 32.1034 191.266 32.1034H189.613C188.797 32.1034 188.39 32.3663 188.39 32.8923V34.6684C188.39 35.1943 188.797 35.4573 189.613 35.4573H191.266C192.087 35.4573 192.498 35.1943 192.498 34.6684V32.8923Z" fill="#323232"/>
<path d="M200.91 32.9328L198.77 36.1326C198.726 36.2025 198.672 36.2556 198.609 36.2932C198.546 36.3308 198.458 36.3502 198.349 36.3502C198.239 36.3502 198.153 36.3308 198.093 36.2932C198.032 36.2556 197.979 36.1986 197.935 36.1222L195.803 32.9432V35.9447C195.803 36.2142 195.657 36.3502 195.365 36.3502C195.072 36.3502 194.927 36.2155 194.927 35.9447V31.6348C194.927 31.3433 195.081 31.1982 195.389 31.1982C195.51 31.1982 195.604 31.2254 195.67 31.2811C195.736 31.3369 195.796 31.4029 195.852 31.4781L198.348 35.196L200.852 31.4781C200.901 31.3951 200.961 31.3278 201.03 31.276C201.1 31.2241 201.194 31.1982 201.315 31.1982C201.475 31.1982 201.593 31.2358 201.671 31.3122C201.748 31.3887 201.787 31.4962 201.787 31.6348V35.9447C201.787 36.2142 201.638 36.3502 201.341 36.3502C201.043 36.3502 200.91 36.2155 200.91 35.9447V32.9328Z" fill="#323232"/>
<path d="M205.456 36.2993C204.029 36.2993 203.316 35.7526 203.316 34.658V32.9027C203.316 31.8015 204.03 31.251 205.456 31.251H207.051C208.479 31.251 209.192 31.8015 209.192 32.9027V34.658C209.192 35.7526 208.478 36.2993 207.051 36.2993H205.456ZM208.308 32.8923C208.308 32.3663 207.897 32.1034 207.076 32.1034H205.423C204.607 32.1034 204.2 32.3663 204.2 32.8923V34.6684C204.2 35.1943 204.607 35.4573 205.423 35.4573H207.076C207.897 35.4573 208.308 35.1943 208.308 34.6684V32.8923Z" fill="#323232"/>
<path d="M215.722 32.4673L211.597 36.1437C211.52 36.2137 211.451 36.2655 211.391 36.2992C211.33 36.3342 211.241 36.351 211.127 36.351C210.868 36.351 210.738 36.2059 210.738 35.9145V31.6252C210.738 31.3415 210.881 31.199 211.168 31.199C211.455 31.199 211.614 31.3415 211.614 31.6252V35.0737L215.746 31.3972C215.817 31.3351 215.885 31.2871 215.948 31.2522C216.011 31.2172 216.085 31.2003 216.167 31.2003C216.453 31.2003 216.598 31.3454 216.598 31.6369V35.9157C216.598 36.2072 216.452 36.3523 216.16 36.3523C215.867 36.3523 215.722 36.2072 215.722 35.9157V32.4673ZM215.606 28.9981C215.606 29.2468 215.564 29.4852 215.482 29.7093C215.399 29.9347 215.276 30.1329 215.11 30.3065C214.945 30.4801 214.74 30.6161 214.497 30.7171C214.255 30.8182 213.977 30.8674 213.663 30.8674C213.348 30.8674 213.071 30.8169 212.831 30.7171C212.592 30.6174 212.39 30.4801 212.225 30.3065C212.06 30.1329 211.935 29.9347 211.852 29.7093C211.77 29.4839 211.729 29.2468 211.729 28.9981C211.729 28.8387 211.753 28.726 211.803 28.66C211.852 28.5939 211.949 28.5615 212.092 28.5615C212.225 28.5615 212.316 28.5887 212.369 28.6444C212.422 28.7001 212.462 28.7766 212.489 28.8724C212.511 29.0175 212.54 29.1652 212.575 29.3142C212.611 29.4632 212.67 29.6005 212.753 29.7248C212.835 29.8492 212.949 29.9515 213.092 30.0319C213.235 30.1122 213.425 30.151 213.663 30.151C213.9 30.151 214.089 30.1109 214.233 30.0319C214.376 29.9528 214.49 29.8505 214.572 29.7248C214.655 29.6005 214.714 29.4632 214.75 29.3142C214.786 29.1652 214.814 29.0175 214.836 28.8724C214.863 28.7753 214.905 28.6988 214.96 28.6444C215.015 28.5887 215.108 28.5615 215.241 28.5615C215.374 28.5615 215.473 28.5939 215.526 28.66C215.579 28.726 215.604 28.8387 215.604 28.9981H215.606Z" fill="#323232"/>
<path d="M219.059 34.305V35.9152C219.059 36.2067 218.914 36.3518 218.621 36.3518C218.329 36.3518 218.183 36.2067 218.183 35.9152V31.626C218.183 31.3423 218.329 31.1998 218.621 31.1998C218.914 31.1998 219.059 31.3423 219.059 31.626V33.1222L222.581 31.3358C222.663 31.2944 222.733 31.2594 222.787 31.2322C222.842 31.205 222.903 31.1946 222.969 31.2011C223.107 31.2011 223.214 31.2374 223.291 31.3099C223.368 31.3824 223.407 31.4887 223.407 31.6273C223.407 31.7244 223.386 31.8035 223.345 31.8656C223.304 31.9278 223.23 31.9874 223.126 32.0418L219.688 33.7142L223.143 35.5214C223.253 35.5836 223.324 35.6496 223.358 35.7183C223.391 35.7882 223.407 35.8569 223.407 35.9256C223.407 36.2093 223.252 36.3518 222.944 36.3518C222.872 36.3518 222.812 36.3401 222.763 36.3155C222.714 36.2909 222.639 36.252 222.54 36.1963L219.059 34.3063V34.305Z" fill="#323232"/>
<path d="M226.357 36.299C225.178 36.299 224.588 35.8391 224.588 34.9181V34.326C224.588 33.4115 225.177 32.9555 226.357 32.9555H229.869V32.8C229.869 32.3155 229.53 32.0733 228.853 32.0733H227.688C227.412 32.0733 227.274 31.9385 227.274 31.6678C227.274 31.397 227.412 31.252 227.688 31.252H228.853C230.104 31.252 230.729 31.7675 230.729 32.8V34.8351C230.729 35.8119 230.128 36.3003 228.927 36.3003H226.357V36.299ZM228.877 35.4893C229.538 35.4893 229.869 35.2613 229.869 34.8041V33.6718H226.423C225.778 33.6718 225.455 33.883 225.455 34.3053V34.8455C225.455 35.2756 225.777 35.4893 226.423 35.4893H228.877Z" fill="#323232"/>
</svg>
