<svg xmlns="http://www.w3.org/2000/svg">
	<symbol id="attention-icon">
		<path d="M12 13V9" stroke-width="2" stroke-linecap="round" stroke-linejoin="round"/>
		<path d="M12 16H12.01" stroke-width="2" stroke-linecap="round" stroke-linejoin="round"/>
		<path d="M11.084 2.54492C11.4952 1.81853 12.5048 1.81853 12.916 2.54492L21.8506 18.335C22.2841 19.1019 21.7213 20 20.9336 20H3.06641C2.27871 20 1.71592 19.1019 2.14941 18.335L11.084 2.54492Z" stroke-width="2"/>
	</symbol>

	<symbol id="telegram-icon">
		<path d="M19.4732 4.14133C17.0986 5.19905 6.91687 9.73546 4.10358 10.9719C2.21681 11.7639 3.32125 12.5063 3.32125 12.5063C3.32125 12.5063 4.93176 13.1002 6.31226 13.5457C7.69276 13.9912 8.42905 13.4962 8.42905 13.4962L14.9173 8.7939C17.2181 7.11112 16.666 8.49696 16.1139 9.09084C14.9173 10.3778 12.9387 12.4071 11.2821 14.0406C10.5458 14.7335 10.914 15.3276 11.2361 15.6245C12.4326 16.7134 15.6997 18.9407 15.8838 19.0893C16.856 19.8295 18.7682 20.8952 19.059 18.6438L20.2095 10.8729C20.5777 8.24955 20.9458 5.82411 20.9918 5.13119C21.1298 3.4484 19.4732 4.14133 19.4732 4.14133Z"/>
	</symbol>

	 <symbol id="user-icon">
		<g clip-path="url(#clip0_7002_29793)">
			<mask id="mask0_7002_29793" style="mask-type:luminance" maskUnits="userSpaceOnUse" x="0" y="0" width="18" height="18">
			<path d="M18 0H0V18H18V0Z" fill="#fff"/>
			</mask>
			<g mask="url(#mask0_7002_29793)">
				<path d="M9 1.5C7.035 1.5 5.4375 3.0975 5.4375 5.0625C5.4375 6.99 6.945 8.55 8.91 8.6175C8.97 8.61 9.03 8.61 9.075 8.6175C9.09 8.6175 9.0975 8.6175 9.1125 8.6175C9.12 8.6175 9.12 8.6175 9.1275 8.6175C11.0475 8.55 12.555 6.99 12.5625 5.0625C12.5625 3.0975 10.965 1.5 9 1.5Z" fill="#352F2E"/>
				<path d="M12.8098 10.6127C10.7173 9.21766 7.30473 9.21766 5.19723 10.6127C4.24473 11.2502 3.71973 12.1127 3.71973 13.0352C3.71973 13.9577 4.24473 14.8127 5.18973 15.4427C6.23973 16.1477 7.61976 16.5002 8.99976 16.5002C10.3798 16.5002 11.7598 16.1477 12.8098 15.4427C13.7548 14.8052 14.2798 13.9502 14.2798 13.0202C14.2723 12.0977 13.7548 11.2427 12.8098 10.6127Z" fill="#352F2E"/>
			</g>
		</g>
		<defs>
			<clipPath id="clip0_7002_29793">
			<rect width="18" height="18" fill="#fff"/>
			</clipPath>
		</defs>
	</symbol>

	<symbol id="bird-icon">
		<path d="M20 6L9 17L4 12"  stroke-width="2" stroke-linecap="round" stroke-linejoin="round"/>
	</symbol>

	<symbol id="checkbox-bird-icon">
		<path d="M1 5.16667L5.16667 8.5L11.4167 1" stroke-width="2" stroke-linecap="round"/>
	</symbol>

	<symbol id="svc-discount-icon">
		<circle cx="9" cy="9" r="9"/>
		<path d="M13.65 8.49003C13.845 8.49003 14 8.33503 14 8.14003V7.675C14 5.625 13.375 5 11.325 5H6.675C4.625 5 4 5.625 4 7.675V7.91C4 8.10503 4.155 8.26003 4.35 8.26003C4.8 8.26003 5.165 8.62503 5.165 9.07503C5.165 9.52502 4.8 9.88503 4.35 9.88503C4.155 9.88503 4 10.04 4 10.235V10.47C4 12.52 4.625 13.145 6.675 13.145H11.325C13.375 13.145 14 12.52 14 10.47C14 10.275 13.845 10.12 13.65 10.12C13.2 10.12 12.835 9.75502 12.835 9.30503C12.835 8.85503 13.2 8.49003 13.65 8.49003ZM7.5 7.51C7.775 7.51 8 7.735 8 8.01C8 8.28503 7.78 8.51003 7.5 8.51003C7.225 8.51003 7 8.28503 7 8.01C7 7.735 7.22 7.51 7.5 7.51ZM10.5 11.01C10.22 11.01 9.995 10.785 9.995 10.51C9.995 10.235 10.22 10.01 10.495 10.01C10.77 10.01 10.995 10.235 10.995 10.51C10.995 10.785 10.78 11.01 10.5 11.01ZM10.95 7.81L7.585 11.175C7.51 11.25 7.415 11.285 7.32 11.285C7.225 11.285 7.13 11.25 7.055 11.175C6.91 11.03 6.91 10.79 7.055 10.645L10.42 7.28C10.565 7.135 10.805 7.135 10.95 7.28C11.095 7.425 11.095 7.665 10.95 7.81Z" fill="#fff"/>
	</symbol>

	<symbol id="svc-screw-icon">
		<circle cx="9" cy="9" r="9" />
		<path fill-rule="evenodd" clip-rule="evenodd" d="M9.07692 3.5C8.4486 3.5 7.8764 3.83039 6.73199 4.49116L6.34493 4.71465C5.20052 5.37543 4.62832 5.70581 4.31416 6.25C4 6.79419 4 7.45496 4 8.77651V9.22349C4 10.545 4 11.2058 4.31416 11.75C4.62832 12.2942 5.20052 12.6246 6.34493 13.2853L6.73199 13.5088C7.8764 14.1696 8.4486 14.5 9.07692 14.5C9.70525 14.5 10.2774 14.1696 11.4219 13.5088L11.8089 13.2853C12.9533 12.6246 13.5255 12.2942 13.8397 11.75C14.1538 11.2058 14.1538 10.545 14.1538 9.22349V8.77651C14.1538 7.45496 14.1538 6.79419 13.8397 6.25C13.5255 5.70581 12.9533 5.37543 11.8089 4.71465L11.4219 4.49116C10.2774 3.83039 9.70525 3.5 9.07692 3.5ZM6.96154 9C6.96154 7.86091 7.90863 6.9375 9.07692 6.9375C10.2452 6.9375 11.1923 7.86091 11.1923 9C11.1923 10.1391 10.2452 11.0625 9.07692 11.0625C7.90863 11.0625 6.96154 10.1391 6.96154 9Z" fill="#fff"/>
	</symbol>

	<symbol id="icon-pencil">
		<path d="M13.5401 5.20846C13.0856 4.75479 12.4697 4.5 11.8275 4.5C11.1854 4.5 10.5695 4.75479 10.115 5.20846L9.20337 6.12066L5.0987 10.2258C5.02428 10.3003 4.97604 10.397 4.96123 10.5013L4.50494 13.6932C4.49502 13.7624 4.50008 13.8329 4.51978 13.8999C4.53949 13.967 4.57337 14.029 4.61914 14.0818C4.66491 14.1346 4.72149 14.177 4.78506 14.206C4.84862 14.235 4.91768 14.25 4.98756 14.25C5.01072 14.2501 5.03385 14.2484 5.05678 14.2451L8.24886 13.7893C8.35314 13.7742 8.44975 13.7258 8.5243 13.6513L13.5406 8.63445C13.9948 8.18012 14.25 7.56394 14.25 6.92145C14.25 6.27896 13.9943 5.66279 13.5401 5.20846ZM7.95003 12.8468L5.56231 13.1881L5.90355 10.8001L9.54802 7.15475L11.5945 9.20195L7.95003 12.8468ZM12.8508 7.94506L12.2838 8.51256L10.2368 6.46536L10.8043 5.89785C11.08 5.63468 11.4464 5.48785 11.8275 5.48785C12.2086 5.48785 12.5751 5.63468 12.8508 5.89785C13.1223 6.1694 13.2748 6.53769 13.2748 6.9217C13.2748 7.30571 13.1223 7.67399 12.8508 7.94554V7.94506Z"/>
	</symbol>

	<symbol id="icon-pen">
		<path d="M12.1425 1.5H5.8575C3.1275 1.5 1.5 3.1275 1.5 5.8575V12.135C1.5 14.8725 3.1275 16.5 5.8575 16.5H12.135C14.865 16.5 16.4925 14.8725 16.4925 12.1425V5.8575C16.5 3.1275 14.8725 1.5 12.1425 1.5ZM8.2125 13.1325C7.995 13.35 7.5825 13.56 7.2825 13.605L5.4375 13.8675C5.37 13.875 5.3025 13.8825 5.235 13.8825C4.9275 13.8825 4.6425 13.7775 4.44 13.575C4.1925 13.3275 4.0875 12.9675 4.1475 12.57L4.41 10.725C4.455 10.4175 4.6575 10.0125 4.8825 9.795L8.2275 6.45C8.2875 6.6075 8.3475 6.765 8.43 6.945C8.505 7.1025 8.5875 7.2675 8.6775 7.4175C8.7525 7.545 8.835 7.665 8.9025 7.755C8.985 7.8825 9.0825 8.0025 9.1425 8.07C9.18 8.1225 9.21 8.16 9.225 8.175C9.4125 8.4 9.63 8.61 9.8175 8.7675C9.87 8.82 9.9 8.85 9.915 8.8575C10.0275 8.9475 10.14 9.0375 10.2375 9.105C10.3575 9.195 10.4775 9.2775 10.605 9.345C10.755 9.435 10.92 9.5175 11.085 9.6C11.2575 9.675 11.415 9.7425 11.5725 9.795L8.2125 13.1325ZM13.0275 8.3175L12.3375 9.015C12.2925 9.06 12.2325 9.0825 12.1725 9.0825C12.15 9.0825 12.12 9.0825 12.105 9.075C10.5825 8.64 9.3675 7.425 8.9325 5.9025C8.91 5.82 8.9325 5.73 8.9925 5.6775L9.69 4.98C10.83 3.84 11.9175 3.8625 13.035 4.98C13.605 5.55 13.8825 6.0975 13.8825 6.6675C13.875 7.2075 13.5975 7.7475 13.0275 8.3175Z" />
	</symbol>

	<symbol id="icon-pen-medium">
		<path d="M16.19 2H7.81C4.17 2 2 4.17 2 7.81V16.18C2 19.83 4.17 22 7.81 22H16.18C19.82 22 21.99 19.83 21.99 16.19V7.81C22 4.17 19.83 2 16.19 2ZM10.95 17.51C10.66 17.8 10.11 18.08 9.71 18.14L7.25 18.49C7.16 18.5 7.07 18.51 6.98 18.51C6.57 18.51 6.19 18.37 5.92 18.1C5.59 17.77 5.45 17.29 5.53 16.76L5.88 14.3C5.94 13.89 6.21 13.35 6.51 13.06L10.97 8.6C11.05 8.81 11.13 9.02 11.24 9.26C11.34 9.47 11.45 9.69 11.57 9.89C11.67 10.06 11.78 10.22 11.87 10.34C11.98 10.51 12.11 10.67 12.19 10.76C12.24 10.83 12.28 10.88 12.3 10.9C12.55 11.2 12.84 11.48 13.09 11.69C13.16 11.76 13.2 11.8 13.22 11.81C13.37 11.93 13.52 12.05 13.65 12.14C13.81 12.26 13.97 12.37 14.14 12.46C14.34 12.58 14.56 12.69 14.78 12.8C15.01 12.9 15.22 12.99 15.43 13.06L10.95 17.51ZM17.37 11.09L16.45 12.02C16.39 12.08 16.31 12.11 16.23 12.11C16.2 12.11 16.16 12.11 16.14 12.1C14.11 11.52 12.49 9.9 11.91 7.87C11.88 7.76 11.91 7.64 11.99 7.57L12.92 6.64C14.44 5.12 15.89 5.15 17.38 6.64C18.14 7.4 18.51 8.13 18.51 8.89C18.5 9.61 18.13 10.33 17.37 11.09Z"/>
	</symbol>

	<symbol id="svc-car-icon">
		<circle cx="9" cy="9" r="9" />
		<path d="M13.8811 8.52428C13.858 8.41599 13.8176 8.30416 13.7632 8.19352C13.6253 7.91191 13.4161 7.67515 13.1614 7.49832H13.4847C13.6265 7.49832 13.7357 7.39139 13.7349 7.25372C13.7347 7.18009 13.7321 7.10372 13.7264 7.04066C13.7168 6.89085 13.6763 6.66427 13.651 6.583C13.6098 6.44964 13.4537 6.32078 13.2917 6.29141C13.1932 6.27456 13.0594 6.25811 12.8796 6.25792C12.8569 6.25792 12.8347 6.25831 12.8136 6.2587C12.7676 6.04583 12.7207 5.82807 12.6726 5.60443C12.5954 5.24625 12.4043 4.90237 12.1343 4.63604C11.8509 4.35639 11.4925 4.17486 11.1242 4.12492C10.9755 4.10514 10.8264 4.08771 10.6774 4.07204C9.21441 3.97593 8.78529 3.97593 7.3222 4.07204C7.17275 4.08771 7.02349 4.10514 6.87444 4.12492C6.50714 4.17466 6.14869 4.3562 5.86527 4.63584C5.59533 4.90218 5.40423 5.24606 5.32699 5.60462C5.27912 5.82826 5.23205 6.04583 5.18619 6.25851C5.16506 6.25792 5.14294 6.25772 5.12021 6.25772C4.94038 6.25792 4.80661 6.27437 4.70805 6.29121C4.54633 6.32059 4.39023 6.44964 4.3488 6.5828C4.32345 6.66407 4.28302 6.89065 4.27336 7.04046C4.26773 7.10332 4.26532 7.17989 4.26492 7.25353C4.26411 7.39139 4.37334 7.49812 4.51515 7.49812H4.8384C4.58374 7.67496 4.37434 7.91172 4.23655 8.19332C4.18224 8.30397 4.14181 8.41579 4.11868 8.52408C4.05934 8.82194 4.00101 9.21674 4 9.73961C4.0008 10.2623 4.05954 10.6393 4.11968 10.9195C4.21121 11.3164 4.57408 11.6915 4.98242 11.846C4.97437 11.9666 4.99409 12.2897 5.0317 12.5044C5.04538 12.5954 5.06831 12.7061 5.09325 12.8126C5.13972 13.012 5.33484 13.1667 5.54001 13.1667H6.68737C6.89275 13.1667 7.06895 13.012 7.09108 12.8126C7.10315 12.7061 7.1126 12.5954 7.11522 12.5044C7.12327 12.3506 7.11562 12.1415 7.10214 11.9907C7.92143 12.0148 8.74293 12.0314 9 12.0287C9.25707 12.0314 10.0786 12.015 10.8979 11.9907C10.8844 12.1415 10.8767 12.3508 10.8848 12.5044C10.8874 12.5954 10.8969 12.7061 10.9089 12.8126C10.931 13.012 11.1073 13.1667 11.3126 13.1667H12.46C12.6654 13.1667 12.8603 13.012 12.9067 12.8126C12.9319 12.7061 12.9546 12.5954 12.9683 12.5044C13.0057 12.2897 13.0254 11.9668 13.0176 11.846C13.4257 11.6913 13.7886 11.3163 13.8803 10.9195C13.9403 10.6393 13.999 10.2623 14 9.73961C13.999 9.21655 13.9405 8.82194 13.8811 8.52428ZM5.59774 10.3136C5.12061 10.3136 4.734 9.93701 4.734 9.47269C4.734 9.00838 5.12081 8.63179 5.59774 8.63179C6.07467 8.63179 6.46148 9.00838 6.46148 9.47269C6.46148 9.93701 6.07467 10.3136 5.59774 10.3136ZM10.2862 9.94582H7.71364C7.44531 9.94582 7.22766 9.73393 7.22766 9.47269C7.22766 9.21145 7.44531 8.99956 7.71364 8.99956H10.2862C10.5545 8.99956 10.7721 9.21145 10.7721 9.47269C10.7721 9.73393 10.5545 9.94582 10.2862 9.94582ZM8.9998 6.87812C7.79833 6.88262 6.67571 7.00306 5.9572 7.1186C6.04932 6.69736 6.14467 6.25714 6.24444 5.79184C6.32651 5.41056 6.66022 5.07549 7.00278 5.02907C8.32796 4.85204 9.67164 4.85204 10.9958 5.02907C11.3394 5.07568 11.6729 5.41075 11.755 5.79145C11.8547 6.25655 11.9501 6.69678 12.0424 7.1186C11.3239 7.00306 10.2013 6.88243 8.9998 6.87812ZM12.4019 10.3136C11.9247 10.3136 11.5381 9.93701 11.5381 9.47269C11.5381 9.00838 11.9249 8.63179 12.4019 8.63179C12.8788 8.63179 13.2656 9.00838 13.2656 9.47269C13.2656 9.93701 12.8788 10.3136 12.4019 10.3136Z" fill="#fff"/>
	</symbol>

	<symbol id="icon-cross">
		<path d="M12.1426 1.5C14.8725 1.50003 16.4997 3.12749 16.4922 5.85742V12.1426C16.4922 14.8725 14.8647 16.5 12.1348 16.5H5.85742C3.12747 16.5 1.5 14.8722 1.5 12.1348V5.85742C1.50003 3.12749 3.12749 1.50003 5.85742 1.5H12.1426ZM13.0605 4.93945C12.4748 4.35367 11.5252 4.35367 10.9395 4.93945L9 6.87891L7.06055 4.93945C6.47476 4.35367 5.52524 4.35367 4.93945 4.93945C4.35367 5.52524 4.35367 6.47476 4.93945 7.06055L6.87891 9L4.93945 10.9395C4.35367 11.5252 4.35367 12.4748 4.93945 13.0605C5.52524 13.6463 6.47476 13.6463 7.06055 13.0605L9 11.1211L10.9395 13.0605C11.5252 13.6463 12.4748 13.6463 13.0605 13.0605C13.6463 12.4748 13.6463 11.5252 13.0605 10.9395L11.1211 9L13.0605 7.06055C13.6463 6.47476 13.6463 5.52524 13.0605 4.93945Z"/>
	</symbol>

	<symbol id="svc-wheel-house-icon">
		<circle cx="9" cy="9" r="9"/>
		<path d="M7.25 5C5.708 5 4.5 7.1963 4.5 10C4.5 12.8037 5.708 15 7.25 15C8.792 15 10 12.8037 10 10C10 7.1963 8.792 5 7.25 5ZM7.25 13C6.42945 13 6 11.4907 6 10C6 8.50927 6.42945 7 7.25 7C8.07055 7 8.5 8.50927 8.5 10C8.5 11.4907 8.07055 13 7.25 13Z" fill="#fff"/>
		<path d="M7.20001 11.7505C7.44855 11.7505 7.65003 10.9446 7.65003 9.95044C7.65003 8.9563 7.44855 8.15039 7.20001 8.15039C6.95148 8.15039 6.75 8.9563 6.75 9.95044C6.75 10.9446 6.95148 11.7505 7.20001 11.7505Z" fill="#fff"/>
		<path d="M10.8575 5H9C10.1162 5.85158 10.8575 7.7192 10.8575 10C10.8575 12.2808 10.1162 14.1484 9 15H10.8575C12.5396 15 13.8575 12.8037 13.8575 10C13.8575 7.1963 12.5396 5 10.8575 5Z" fill="#fff"/>
		<path d="M4 4.875L9 3L14 4.875" stroke="#fff" stroke-width="0.9375" stroke-linecap="round"/>
	</symbol>

	<symbol id="svc-wheel-icon">
		<circle cx="9" cy="9" r="9"/>
		<path d="M7.25 4C5.708 4 4.5 6.1963 4.5 9C4.5 11.8037 5.708 14 7.25 14C8.792 14 10 11.8037 10 9C10 6.1963 8.792 4 7.25 4ZM7.25 12C6.42945 12 6 10.4907 6 9C6 7.50927 6.42945 6 7.25 6C8.07055 6 8.5 7.50927 8.5 9C8.5 10.4907 8.07055 12 7.25 12Z" fill="#fff"/>
		<path d="M7.20001 10.7505C7.44855 10.7505 7.65003 9.94458 7.65003 8.95044C7.65003 7.9563 7.44855 7.15039 7.20001 7.15039C6.95148 7.15039 6.75 7.9563 6.75 8.95044C6.75 9.94458 6.95148 10.7505 7.20001 10.7505Z" fill="#fff"/>
		<path d="M10.8575 4H9C10.1162 4.85158 10.8575 6.7192 10.8575 9C10.8575 11.2808 10.1162 13.1484 9 14H10.8575C12.5396 14 13.8575 11.8037 13.8575 9C13.8575 6.1963 12.5396 4 10.8575 4Z" fill="#fff"/>
	</symbol>

	<symbol id="svc-spanner-icon">
		<circle cx="9" cy="9" r="9"/>
		<path d="M13.6433 6.34796C13.5371 6.30295 13.4197 6.29076 13.3065 6.31294C13.1932 6.33513 13.0892 6.39067 13.0077 6.47244L13.0073 6.47291L11.4326 8.04759C11.3218 8.15344 11.1746 8.2125 11.0214 8.2125C10.8682 8.2125 10.7209 8.15344 10.6102 8.04759L9.95235 7.38973C9.89834 7.33574 9.85549 7.27164 9.82626 7.20109C9.79702 7.13055 9.78197 7.05493 9.78197 6.97856C9.78197 6.90219 9.79702 6.82658 9.82626 6.75603C9.85549 6.68548 9.89834 6.62138 9.95235 6.56739L11.5275 4.99225C11.6086 4.91088 11.6639 4.80731 11.6862 4.6946C11.7085 4.58189 11.6969 4.4651 11.653 4.35895C11.609 4.2528 11.5345 4.16206 11.439 4.09818C11.3435 4.0343 11.2312 4.00013 11.1163 4H11.1127L10.2867 4.00455C9.39091 4.00693 8.53271 4.36498 7.90082 4.99997C7.52599 5.37637 7.24415 5.83504 7.07773 6.3395C6.91131 6.84396 6.8649 7.38029 6.94219 7.90584L7.03101 8.50192L4.51106 11.0216C4.34905 11.1836 4.22053 11.3759 4.13284 11.5876C4.04515 11.7993 4.00001 12.0261 4 12.2552C3.99998 12.718 4.18377 13.1617 4.51095 13.4889C4.83813 13.8161 5.28189 14 5.7446 14C6.20732 14 6.6511 13.8162 6.97831 13.4891L9.49801 10.9689L10.0941 11.058C10.6197 11.1349 11.156 11.0882 11.6604 10.9218C12.1648 10.7553 12.6235 10.4735 13 10.0989C13.635 9.4671 13.9931 8.60896 13.9954 7.71321L14 6.88772C14.001 6.77248 13.9675 6.65956 13.904 6.56342C13.8405 6.46727 13.7497 6.39225 13.6433 6.34796ZM6.4732 12.3492C6.39187 12.4305 6.28825 12.4859 6.17544 12.5083C6.06263 12.5307 5.94571 12.5192 5.83944 12.4752C5.73318 12.4312 5.64235 12.3567 5.57845 12.261C5.51455 12.1654 5.48045 12.053 5.48045 11.9379C5.48045 11.8229 5.51455 11.7105 5.57845 11.6149C5.64235 11.5192 5.73318 11.4447 5.83944 11.4007C5.94571 11.3567 6.06263 11.3451 6.17544 11.3676C6.28825 11.39 6.39187 11.4454 6.4732 11.5267C6.58226 11.6358 6.64352 11.7837 6.64352 11.9379C6.64352 12.0922 6.58226 12.2401 6.4732 12.3492Z" fill="#fff"/>
	</symbol>

	<symbol id="svc-house-icon">
		<circle cx="9" cy="9" r="9"/>
		<path d="M13.0201 5.90887L10.1401 3.89387C9.35512 3.34387 8.15012 3.37387 7.39512 3.95887L4.89012 5.91387C4.39012 6.30387 3.99512 7.10387 3.99512 7.73387V11.1839C3.99512 12.4589 5.03012 13.4989 6.30512 13.4989H11.6951C12.9701 13.4989 14.0051 12.4639 14.0051 11.1889V7.79887C14.0051 7.12387 13.5701 6.29387 13.0201 5.90887ZM9.37512 11.4989C9.37512 11.7039 9.20512 11.8739 9.00012 11.8739C8.79512 11.8739 8.62512 11.7039 8.62512 11.4989V9.99887C8.62512 9.79387 8.79512 9.62387 9.00012 9.62387C9.20512 9.62387 9.37512 9.79387 9.37512 9.99887V11.4989Z" fill="#fff"/>
	</symbol>

	<symbol id="car-icon">
		<path d="M17.0541 9.16782C17.0159 8.98428 16.9492 8.79476 16.8596 8.60724C16.6319 8.12997 16.2867 7.7287 15.8666 7.429H16.3999C16.6339 7.429 16.8141 7.24778 16.8128 7.01446C16.8125 6.88966 16.8082 6.76022 16.7989 6.65335C16.7829 6.39945 16.7162 6.01544 16.6744 5.87771C16.6064 5.65168 16.3488 5.43329 16.0816 5.38351C15.919 5.35497 15.6983 5.32709 15.4016 5.32675C15.3641 5.32675 15.3276 5.32742 15.2927 5.32808C15.2167 4.96731 15.1394 4.59824 15.06 4.21921C14.9326 3.61217 14.6173 3.02935 14.1719 2.57797C13.7042 2.10402 13.1128 1.79635 12.5051 1.71172C12.2598 1.67819 12.0139 1.64865 11.7679 1.6221C9.35402 1.4592 8.64597 1.4592 6.23188 1.6221C5.98528 1.64865 5.73901 1.67819 5.49307 1.71172C4.88703 1.79602 4.29558 2.10369 3.82794 2.57764C3.38253 3.02902 3.06723 3.61183 2.93978 4.21954C2.86079 4.59857 2.78312 4.96731 2.70745 5.32775C2.6726 5.32675 2.63609 5.32642 2.59859 5.32642C2.30187 5.32675 2.08116 5.35463 1.91853 5.38318C1.65168 5.43296 1.39413 5.65168 1.32576 5.87737C1.28394 6.01511 1.21723 6.39912 1.20129 6.65302C1.192 6.75956 1.18802 6.88933 1.18735 7.01413C1.18603 7.24778 1.36625 7.42867 1.60024 7.42867H2.1336C1.71341 7.72837 1.36791 8.12964 1.14056 8.60691C1.05094 8.79443 0.984233 8.98394 0.946064 9.16748C0.848154 9.6723 0.751904 10.3414 0.750244 11.2276C0.751572 12.1134 0.848486 12.7523 0.947724 13.2273C1.09874 13.9 1.69748 14.5356 2.37124 14.7975C2.35796 15.0019 2.39049 15.5496 2.45255 15.9133C2.47512 16.0677 2.51296 16.2552 2.55411 16.4357C2.63078 16.7736 2.95272 17.0358 3.29126 17.0358H5.18441C5.52328 17.0358 5.81402 16.7736 5.85053 16.4357C5.87044 16.2552 5.88604 16.0677 5.89036 15.9133C5.90363 15.6528 5.89102 15.2983 5.86878 15.0428C7.2206 15.0836 8.57608 15.1118 9.00024 15.1071C9.42441 15.1118 10.7799 15.0839 12.1317 15.0428C12.1095 15.2983 12.0969 15.6531 12.1101 15.9133C12.1144 16.0677 12.13 16.2552 12.15 16.4357C12.1865 16.7736 12.4772 17.0358 12.8161 17.0358H14.7092C15.0481 17.0358 15.3697 16.7736 15.4464 16.4357C15.4879 16.2552 15.5254 16.0677 15.5479 15.9133C15.6097 15.5496 15.6422 15.0023 15.6293 14.7975C16.3027 14.5353 16.9014 13.8997 17.0528 13.2273C17.1517 12.7523 17.2486 12.1134 17.2502 11.2276C17.2486 10.3411 17.152 9.6723 17.0541 9.16782ZM3.38651 12.2004C2.59925 12.2004 1.96134 11.5621 1.96134 10.7752C1.96134 9.98827 2.59958 9.35003 3.38651 9.35003C4.17345 9.35003 4.81169 9.98827 4.81169 10.7752C4.81169 11.5621 4.17345 12.2004 3.38651 12.2004ZM11.1224 11.5771H6.87775C6.435 11.5771 6.07589 11.218 6.07589 10.7752C6.07589 10.3324 6.435 9.97333 6.87775 9.97333H11.1224C11.5652 9.97333 11.9243 10.3324 11.9243 10.7752C11.9243 11.218 11.5652 11.5771 11.1224 11.5771ZM8.99991 6.37788C7.01748 6.38551 5.16516 6.58963 3.97962 6.78545C4.13163 6.07153 4.28895 5.32543 4.45357 4.53684C4.58898 3.89063 5.1396 3.32275 5.70482 3.24409C7.89137 2.94405 10.1085 2.94405 12.2933 3.24409C12.8602 3.32308 13.4105 3.89096 13.5459 4.53617C13.7105 5.32443 13.8679 6.07054 14.0202 6.78545C12.8347 6.58963 10.9823 6.38518 8.99991 6.37788ZM14.6133 12.2004C13.826 12.2004 13.1881 11.5621 13.1881 10.7752C13.1881 9.98827 13.8264 9.35003 14.6133 9.35003C15.4002 9.35003 16.0385 9.98827 16.0385 10.7752C16.0385 11.5621 15.4002 12.2004 14.6133 12.2004Z"/>
	</symbol>

	<symbol id="calendar-icon">
		<path d="M12.5624 2.67V1.5C12.5624 1.1925 12.3074 0.9375 11.9999 0.9375C11.6924 0.9375 11.4374 1.1925 11.4374 1.5V2.625H6.56243V1.5C6.56243 1.1925 6.30743 0.9375 5.99993 0.9375C5.69243 0.9375 5.43743 1.1925 5.43743 1.5V2.67C3.41243 2.8575 2.42993 4.065 2.27993 5.8575C2.26493 6.075 2.44493 6.255 2.65493 6.255H15.3449C15.5624 6.255 15.7424 6.0675 15.7199 5.8575C15.5699 4.065 14.5874 2.8575 12.5624 2.67Z" />
		<path d="M15 7.37988H3C2.5875 7.37988 2.25 7.71738 2.25 8.12988V12.7499C2.25 14.9999 3.375 16.4999 6 16.4999H12C14.625 16.4999 15.75 14.9999 15.75 12.7499V8.12988C15.75 7.71738 15.4125 7.37988 15 7.37988ZM6.9075 13.6574C6.87 13.6874 6.8325 13.7249 6.795 13.7474C6.75 13.7774 6.705 13.7999 6.66 13.8149C6.615 13.8374 6.57 13.8524 6.525 13.8599C6.4725 13.8674 6.4275 13.8749 6.375 13.8749C6.2775 13.8749 6.18 13.8524 6.09 13.8149C5.9925 13.7774 5.9175 13.7249 5.8425 13.6574C5.7075 13.5149 5.625 13.3199 5.625 13.1249C5.625 12.9299 5.7075 12.7349 5.8425 12.5924C5.9175 12.5249 5.9925 12.4724 6.09 12.4349C6.225 12.3749 6.375 12.3599 6.525 12.3899C6.57 12.3974 6.615 12.4124 6.66 12.4349C6.705 12.4499 6.75 12.4724 6.795 12.5024C6.8325 12.5324 6.87 12.5624 6.9075 12.5924C7.0425 12.7349 7.125 12.9299 7.125 13.1249C7.125 13.3199 7.0425 13.5149 6.9075 13.6574ZM6.9075 11.0324C6.765 11.1674 6.57 11.2499 6.375 11.2499C6.18 11.2499 5.985 11.1674 5.8425 11.0324C5.7075 10.8899 5.625 10.6949 5.625 10.4999C5.625 10.3049 5.7075 10.1099 5.8425 9.96738C6.0525 9.75738 6.3825 9.68988 6.66 9.80988C6.7575 9.84738 6.84 9.89988 6.9075 9.96738C7.0425 10.1099 7.125 10.3049 7.125 10.4999C7.125 10.6949 7.0425 10.8899 6.9075 11.0324ZM9.5325 13.6574C9.39 13.7924 9.195 13.8749 9 13.8749C8.805 13.8749 8.61 13.7924 8.4675 13.6574C8.3325 13.5149 8.25 13.3199 8.25 13.1249C8.25 12.9299 8.3325 12.7349 8.4675 12.5924C8.745 12.3149 9.255 12.3149 9.5325 12.5924C9.6675 12.7349 9.75 12.9299 9.75 13.1249C9.75 13.3199 9.6675 13.5149 9.5325 13.6574ZM9.5325 11.0324C9.495 11.0624 9.4575 11.0924 9.42 11.1224C9.375 11.1524 9.33 11.1749 9.285 11.1899C9.24 11.2124 9.195 11.2274 9.15 11.2349C9.0975 11.2424 9.0525 11.2499 9 11.2499C8.805 11.2499 8.61 11.1674 8.4675 11.0324C8.3325 10.8899 8.25 10.6949 8.25 10.4999C8.25 10.3049 8.3325 10.1099 8.4675 9.96738C8.535 9.89988 8.6175 9.84738 8.715 9.80988C8.9925 9.68988 9.3225 9.75738 9.5325 9.96738C9.6675 10.1099 9.75 10.3049 9.75 10.4999C9.75 10.6949 9.6675 10.8899 9.5325 11.0324ZM12.1575 13.6574C12.015 13.7924 11.82 13.8749 11.625 13.8749C11.43 13.8749 11.235 13.7924 11.0925 13.6574C10.9575 13.5149 10.875 13.3199 10.875 13.1249C10.875 12.9299 10.9575 12.7349 11.0925 12.5924C11.37 12.3149 11.88 12.3149 12.1575 12.5924C12.2925 12.7349 12.375 12.9299 12.375 13.1249C12.375 13.3199 12.2925 13.5149 12.1575 13.6574ZM12.1575 11.0324C12.12 11.0624 12.0825 11.0924 12.045 11.1224C12 11.1524 11.955 11.1749 11.91 11.1899C11.865 11.2124 11.82 11.2274 11.775 11.2349C11.7225 11.2424 11.67 11.2499 11.625 11.2499C11.43 11.2499 11.235 11.1674 11.0925 11.0324C10.9575 10.8899 10.875 10.6949 10.875 10.4999C10.875 10.3049 10.9575 10.1099 11.0925 9.96738C11.1675 9.89988 11.2425 9.84738 11.34 9.80988C11.475 9.74988 11.625 9.73488 11.775 9.76488C11.82 9.77238 11.865 9.78738 11.91 9.80988C11.955 9.82488 12 9.84738 12.045 9.87738C12.0825 9.90738 12.12 9.93738 12.1575 9.96738C12.2925 10.1099 12.375 10.3049 12.375 10.4999C12.375 10.6949 12.2925 10.8899 12.1575 11.0324Z" />
	</symbol>

	<symbol id="empty-calendar-icon">
		<path d="M14.25 3H3.75C2.92157 3 2.25 3.67157 2.25 4.5V15C2.25 15.8284 2.92157 16.5 3.75 16.5H14.25C15.0784 16.5 15.75 15.8284 15.75 15V4.5C15.75 3.67157 15.0784 3 14.25 3Z" stroke-width="1.5" stroke-linecap="round" stroke-linejoin="round"/>
		<path d="M12 1.5V4.5" stroke-width="1.5" stroke-linecap="round" stroke-linejoin="round"/>
		<path d="M6 1.5V4.5" stroke-width="1.5" stroke-linecap="round" stroke-linejoin="round"/>
		<path d="M2.25 7.5H15.75" stroke-width="1.5" stroke-linecap="round" stroke-linejoin="round"/>
	</symbol>

	<symbol id="wheel-icon">
		<path d="M6.375 1.5C4.062 1.5 2.25 4.79445 2.25 9C2.25 13.2056 4.062 16.5 6.375 16.5C8.688 16.5 10.5 13.2056 10.5 9C10.5 4.79445 8.688 1.5 6.375 1.5ZM6.375 13.5C5.14418 13.5 4.5 11.2361 4.5 9C4.5 6.76391 5.14418 4.5 6.375 4.5C7.60582 4.5 8.25 6.76391 8.25 9C8.25 11.2361 7.60582 13.5 6.375 13.5Z"/>
		<path d="M6.375 12.75C6.99632 12.75 7.5 11.0711 7.5 9C7.5 6.92893 6.99632 5.25 6.375 5.25C5.75368 5.25 5.25 6.92893 5.25 9C5.25 11.0711 5.75368 12.75 6.375 12.75Z"/>
		<path d="M11.2499 1.5H8.46362C10.138 2.77736 11.2499 5.5788 11.2499 9C11.2499 12.4212 10.138 15.2227 8.46362 16.5H11.2499C13.7731 16.5 15.7499 13.2056 15.7499 9C15.7499 4.79445 13.7731 1.5 11.2499 1.5Z"/>
	</symbol>

	<symbol id="svc-calendar-icon">
		<circle cx="9" cy="9" r="9"/>
		<path d="M11.3756 4.78098V4.00098C11.3756 3.79598 11.2056 3.62598 11.0006 3.62598C10.7956 3.62598 10.6256 3.79598 10.6256 4.00098V4.75098H7.3756V4.00098C7.3756 3.79598 7.2056 3.62598 7.0006 3.62598C6.7956 3.62598 6.6256 3.79598 6.6256 4.00098V4.78098C5.2756 4.90598 4.6206 5.71098 4.5206 6.90598C4.5106 7.05098 4.6306 7.17098 4.7706 7.17098H13.2306C13.3756 7.17098 13.4956 7.04598 13.4806 6.90598C13.3806 5.71098 12.7256 4.90598 11.3756 4.78098Z" fill="#fff"/>
		<path d="M13 7.91992H5C4.725 7.91992 4.5 8.14492 4.5 8.41992V11.4999C4.5 12.9999 5.25 13.9999 7 13.9999H11C12.75 13.9999 13.5 12.9999 13.5 11.4999V8.41992C13.5 8.14492 13.275 7.91992 13 7.91992ZM7.605 12.1049C7.58 12.1249 7.555 12.1499 7.53 12.1649C7.5 12.1849 7.47 12.1999 7.44 12.2099C7.41 12.2249 7.38 12.2349 7.35 12.2399C7.315 12.2449 7.285 12.2499 7.25 12.2499C7.185 12.2499 7.12 12.2349 7.06 12.2099C6.995 12.1849 6.945 12.1499 6.895 12.1049C6.805 12.0099 6.75 11.8799 6.75 11.7499C6.75 11.6199 6.805 11.4899 6.895 11.3949C6.945 11.3499 6.995 11.3149 7.06 11.2899C7.15 11.2499 7.25 11.2399 7.35 11.2599C7.38 11.2649 7.41 11.2749 7.44 11.2899C7.47 11.2999 7.5 11.3149 7.53 11.3349C7.555 11.3549 7.58 11.3749 7.605 11.3949C7.695 11.4899 7.75 11.6199 7.75 11.7499C7.75 11.8799 7.695 12.0099 7.605 12.1049ZM7.605 10.3549C7.51 10.4449 7.38 10.4999 7.25 10.4999C7.12 10.4999 6.99 10.4449 6.895 10.3549C6.805 10.2599 6.75 10.1299 6.75 9.99992C6.75 9.86992 6.805 9.73992 6.895 9.64492C7.035 9.50492 7.255 9.45992 7.44 9.53992C7.505 9.56492 7.56 9.59992 7.605 9.64492C7.695 9.73992 7.75 9.86992 7.75 9.99992C7.75 10.1299 7.695 10.2599 7.605 10.3549ZM9.355 12.1049C9.26 12.1949 9.13 12.2499 9 12.2499C8.87 12.2499 8.74 12.1949 8.645 12.1049C8.555 12.0099 8.5 11.8799 8.5 11.7499C8.5 11.6199 8.555 11.4899 8.645 11.3949C8.83 11.2099 9.17 11.2099 9.355 11.3949C9.445 11.4899 9.5 11.6199 9.5 11.7499C9.5 11.8799 9.445 12.0099 9.355 12.1049ZM9.355 10.3549C9.33 10.3749 9.305 10.3949 9.28 10.4149C9.25 10.4349 9.22 10.4499 9.19 10.4599C9.16 10.4749 9.13 10.4849 9.1 10.4899C9.065 10.4949 9.035 10.4999 9 10.4999C8.87 10.4999 8.74 10.4449 8.645 10.3549C8.555 10.2599 8.5 10.1299 8.5 9.99992C8.5 9.86992 8.555 9.73992 8.645 9.64492C8.69 9.59992 8.745 9.56492 8.81 9.53992C8.995 9.45992 9.215 9.50492 9.355 9.64492C9.445 9.73992 9.5 9.86992 9.5 9.99992C9.5 10.1299 9.445 10.2599 9.355 10.3549ZM11.105 12.1049C11.01 12.1949 10.88 12.2499 10.75 12.2499C10.62 12.2499 10.49 12.1949 10.395 12.1049C10.305 12.0099 10.25 11.8799 10.25 11.7499C10.25 11.6199 10.305 11.4899 10.395 11.3949C10.58 11.2099 10.92 11.2099 11.105 11.3949C11.195 11.4899 11.25 11.6199 11.25 11.7499C11.25 11.8799 11.195 12.0099 11.105 12.1049ZM11.105 10.3549C11.08 10.3749 11.055 10.3949 11.03 10.4149C11 10.4349 10.97 10.4499 10.94 10.4599C10.91 10.4749 10.88 10.4849 10.85 10.4899C10.815 10.4949 10.78 10.4999 10.75 10.4999C10.62 10.4999 10.49 10.4449 10.395 10.3549C10.305 10.2599 10.25 10.1299 10.25 9.99992C10.25 9.86992 10.305 9.73992 10.395 9.64492C10.445 9.59992 10.495 9.56492 10.56 9.53992C10.65 9.49992 10.75 9.48992 10.85 9.50992C10.88 9.51492 10.91 9.52492 10.94 9.53992C10.97 9.54992 11 9.56492 11.03 9.58492C11.055 9.60492 11.08 9.62492 11.105 9.64492C11.195 9.73992 11.25 9.86992 11.25 9.99992C11.25 10.1299 11.195 10.2599 11.105 10.3549Z" fill="#fff"/>
	</symbol>
	
	<symbol id="basket-icon">
		<path d="M7.80029 21.999C8.35258 21.999 8.80029 21.5513 8.80029 20.999C8.80029 20.4467 8.35258 19.999 7.80029 19.999C7.24801 19.999 6.80029 20.4467 6.80029 20.999C6.80029 21.5513 7.24801 21.999 7.80029 21.999Z"  stroke-width="2.4" stroke-linecap="round" stroke-linejoin="round"/>
		<path d="M18.7998 21.999C19.3521 21.999 19.7998 21.5513 19.7998 20.999C19.7998 20.4467 19.3521 19.999 18.7998 19.999C18.2475 19.999 17.7998 20.4467 17.7998 20.999C17.7998 21.5513 18.2475 21.999 18.7998 21.999Z"  stroke-width="2.4" stroke-linecap="round" stroke-linejoin="round"/>
		<path d="M2.19971 3.40039H3.79971L6.47971 14.3904C6.57115 14.8508 6.82162 15.2644 7.18725 15.5587C7.55289 15.853 8.01041 16.0094 8.47971 16.0004H18.1997C18.669 16.0094 19.1265 15.853 19.4922 15.5587C19.8578 15.2644 20.1083 14.8508 20.1997 14.3904L21.7997 6.00039H4.79971"  stroke-width="2.4" stroke-linecap="round" stroke-linejoin="round"/>
	</symbol>	

	<symbol id="close-icon">
		<path d="M6 6L18 18" stroke-width="2" stroke-linecap="round"/>
		<path d="M18 6L6 18" stroke-width="2" stroke-linecap="round"/>
	</symbol>	

	<symbol id="search-icon">
		<path d="M11 19C15.4183 19 19 15.4183 19 11C19 6.58172 15.4183 3 11 3C6.58172 3 3 6.58172 3 11C3 15.4183 6.58172 19 11 19Z"  stroke-width="2" stroke-linecap="round" stroke-linejoin="round"/>
		<path d="M21.0004 21.0004L16.6504 16.6504"  stroke-width="2" stroke-linecap="round" stroke-linejoin="round"/>
	</symbol>

	<symbol id="list-up-icon">
		<g clip-path="url(#clip0_7002_38824)">
			<path fill-rule="evenodd" clip-rule="evenodd" d="M21.75 6C21.75 3.93037 20.0696 2.25 18 2.25H6C3.93037 2.25 2.25 3.93037 2.25 6V18C2.25 20.0696 3.93037 21.75 6 21.75H18C20.0696 21.75 21.75 20.0696 21.75 18V6Z"/>
			<path fill-rule="evenodd" clip-rule="evenodd" d="M16.125 9.75007V14.2501C16.125 14.6641 16.461 15 16.875 15C17.289 15 17.625 14.6641 17.625 14.2501V9.75007C17.625 9.33607 17.289 9.00015 16.875 9.00015C16.461 9.00015 16.125 9.33607 16.125 9.75007Z" fill="#fff"/>
			<path fill-rule="evenodd" clip-rule="evenodd" d="M16.8749 10.8104L15.5302 12.1552C15.2377 12.448 14.7622 12.448 14.4697 12.1552C14.1768 11.8627 14.1768 11.3872 14.4697 11.0947L16.3447 9.21966C16.6375 8.92678 17.1123 8.92678 17.4052 9.21966L19.2802 11.0947C19.573 11.3872 19.573 11.8627 19.2802 12.1552C18.9877 12.448 18.5122 12.448 18.2197 12.1552L16.8749 10.8104Z" fill="#fff"/>
			<path fill-rule="evenodd" clip-rule="evenodd" d="M6 12.75H12C12.414 12.75 12.75 12.414 12.75 12C12.75 11.586 12.414 11.25 12 11.25H6C5.586 11.25 5.25 11.586 5.25 12C5.25 12.414 5.586 12.75 6 12.75Z" fill="#fff"/>
			<path fill-rule="evenodd" clip-rule="evenodd" d="M5.99889 17.25H14.2488C14.6628 17.25 14.9987 16.914 14.9987 16.5C14.9987 16.086 14.6628 15.75 14.2488 15.75H5.99889C5.58492 15.75 5.24902 16.086 5.24902 16.5C5.24902 16.914 5.58492 17.25 5.99889 17.25Z" fill="#fff"/>
			<path fill-rule="evenodd" clip-rule="evenodd" d="M5.99999 8.25H9.74996C10.1639 8.25 10.5 7.914 10.5 7.5C10.5 7.086 10.1639 6.75 9.74996 6.75H5.99999C5.58602 6.75 5.25 7.086 5.25 7.5C5.25 7.914 5.58602 8.25 5.99999 8.25Z" fill="#fff"/>
		</g>
		<defs>
			<clipPath id="clip0_7002_38824">
				<rect width="24" height="24" fill="#fff"/>
			</clipPath>
		</defs>
	</symbol>	

	<symbol id="wheel-house-icon">
		<path d="M14.4004 10.1006C14.5389 10.1008 14.9059 10.2366 15.292 11.0088C15.6515 11.7279 15.9004 12.7841 15.9004 14C15.9004 15.2161 15.6516 16.2731 15.292 16.9922C14.9059 17.7641 14.5389 17.9001 14.4004 17.9004C14.2622 17.9004 13.8942 17.7649 13.5078 16.9922C13.1483 16.2731 12.9004 15.2161 12.9004 14C12.9004 12.7841 13.1483 11.7279 13.5078 11.0088C13.8943 10.2358 14.2622 10.1006 14.4004 10.1006Z"  stroke-width="1.8"/>
		<path d="M14.4 22C17.4928 22 20 18.4183 20 14C20 9.58172 17.4928 6 14.4 6M14.4 22C11.3072 22 8.8 18.4183 8.8 14C8.8 9.58172 11.3072 6 14.4 6M14.4 22H9.6C6.50721 22 4 18.4183 4 14C4 9.58172 6.50721 6 9.6 6M14.4 6C14.4 6 12.6928 6 9.6 6M14.4 6H9.6"  stroke-width="1.8"/>
		<path d="M2 5L12 2L22 5"  stroke-width="1.8" stroke-linecap="round"/>
	</symbol>

	<symbol id="alloy-wheels-icon">
		<g clip-path="url(#clip0_7114_66647)">
			<path d="M12 0.375C9.7008 0.375 7.45322 1.05679 5.5415 2.33417C3.62978 3.61154 2.13977 5.42711 1.25991 7.55131C0.380037 9.6755 0.149823 12.0129 0.598376 14.2679C1.04693 16.523 2.1541 18.5943 3.77989 20.2201C5.40567 21.8459 7.47705 22.9531 9.73208 23.4016C11.9871 23.8502 14.3245 23.62 16.4487 22.7401C18.5729 21.8602 20.3885 20.3702 21.6658 18.4585C22.9432 16.5468 23.625 14.2992 23.625 12C23.625 8.91686 22.4002 5.95999 20.2201 3.77988C18.04 1.59977 15.0831 0.375 12 0.375ZM12.9665 2.1C14.7264 2.27209 16.4087 2.90984 17.8404 3.94767C19.2721 4.9855 20.4015 6.38595 21.1125 8.005L19.9785 8.3735L19.337 8.582C18.6066 8.81936 17.8304 8.88047 17.0718 8.76033C16.3132 8.6402 15.5939 8.34224 14.9725 7.8908C14.3512 7.43937 13.8455 6.84728 13.4969 6.16296C13.1482 5.47864 12.9665 4.72152 12.9665 3.9535V2.1ZM9.54401 14.3405C9.68793 14.3404 9.82866 14.383 9.94837 14.4629C10.0681 14.5428 10.1614 14.6564 10.2165 14.7894C10.2717 14.9223 10.2861 15.0686 10.2581 15.2098C10.23 15.351 10.1607 15.4806 10.0589 15.5824C9.95715 15.6842 9.82748 15.7535 9.68631 15.7815C9.54514 15.8096 9.39883 15.7952 9.26587 15.74C9.13292 15.6849 9.0193 15.5916 8.9394 15.4719C8.8595 15.3522 8.81691 15.2114 8.81701 15.0675C8.81701 14.8747 8.8936 14.6898 9.02994 14.5534C9.16628 14.4171 9.35119 14.3405 9.54401 14.3405ZM8.36201 11.516C8.21808 11.5161 8.07735 11.4735 7.95764 11.3936C7.83793 11.3137 7.7446 11.2001 7.68948 11.0671C7.63435 10.9342 7.6199 10.7879 7.64796 10.6467C7.67601 10.5055 7.74531 10.3759 7.84708 10.2741C7.94886 10.1723 8.07853 10.103 8.2197 10.075C8.36087 10.0469 8.50718 10.0613 8.64014 10.1165C8.77309 10.1716 8.88671 10.2649 8.96661 10.3846C9.04651 10.5043 9.0891 10.6451 9.08901 10.789C9.08901 10.8845 9.0702 10.979 9.03367 11.0672C8.99713 11.1554 8.94358 11.2356 8.87607 11.3031C8.80856 11.3706 8.72842 11.4241 8.64022 11.4607C8.55201 11.4972 8.45748 11.516 8.36201 11.516ZM10.1925 12.0055C10.1925 11.648 10.2985 11.2985 10.4971 11.0013C10.6957 10.7041 10.978 10.4724 11.3083 10.3356C11.6386 10.1988 12.002 10.163 12.3526 10.2327C12.7033 10.3025 13.0253 10.4746 13.2781 10.7274C13.5309 10.9802 13.703 11.3023 13.7728 11.6529C13.8425 12.0035 13.8067 12.3669 13.6699 12.6972C13.5331 13.0275 13.3014 13.3098 13.0042 13.5084C12.707 13.707 12.3575 13.813 12 13.813C11.7626 13.8131 11.5276 13.7664 11.3082 13.6755C11.0889 13.5847 10.8896 13.4516 10.7218 13.2837C10.5539 13.1159 10.4208 12.9166 10.33 12.6973C10.2391 12.478 10.1924 12.2429 10.1925 12.0055ZM14.472 14.3405C14.6159 14.3404 14.7567 14.383 14.8764 14.4629C14.9961 14.5428 15.0894 14.6564 15.1445 14.7894C15.1997 14.9223 15.2141 15.0686 15.1861 15.2098C15.158 15.351 15.0887 15.4806 14.9869 15.5824C14.8852 15.6842 14.7555 15.7535 14.6143 15.7815C14.4731 15.8096 14.3268 15.7952 14.1939 15.74C14.0609 15.6849 13.9473 15.5916 13.8674 15.4719C13.7875 15.3522 13.7449 15.2114 13.745 15.0675C13.745 14.8747 13.8216 14.6898 13.9579 14.5534C14.0943 14.4171 14.2792 14.3405 14.472 14.3405ZM14.927 10.7905C14.927 10.6467 14.9696 10.5062 15.0495 10.3866C15.1294 10.267 15.243 10.1739 15.3758 10.1188C15.5086 10.0638 15.6548 10.0494 15.7958 10.0775C15.9369 10.1055 16.0664 10.1748 16.1681 10.2764C16.2697 10.3781 16.339 10.5076 16.367 10.6487C16.3951 10.7897 16.3807 10.9359 16.3257 11.0687C16.2706 11.2016 16.1775 11.3151 16.0579 11.395C15.9384 11.4749 15.7978 11.5175 15.654 11.5175C15.5584 11.5175 15.4637 11.4986 15.3754 11.462C15.2871 11.4254 15.2069 11.3717 15.1394 11.304C15.0719 11.2364 15.0184 11.156 14.9819 11.0677C14.9455 10.9793 14.9268 10.8846 14.927 10.789V10.7905ZM12 7.393C12.1438 7.393 12.2844 7.43564 12.4039 7.51552C12.5235 7.59541 12.6166 7.70895 12.6717 7.84179C12.7267 7.97463 12.7411 8.12081 12.713 8.26183C12.685 8.40285 12.6157 8.53239 12.5141 8.63407C12.4124 8.73574 12.2829 8.80498 12.1418 8.83303C12.0008 8.86108 11.8546 8.84669 11.7218 8.79166C11.589 8.73664 11.4754 8.64345 11.3955 8.5239C11.3156 8.40435 11.273 8.26379 11.273 8.12C11.273 7.92719 11.3496 7.74227 11.4859 7.60593C11.6223 7.46959 11.8072 7.393 12 7.393ZM11.0335 2.1V3.9535C11.0335 4.72152 10.8518 5.47864 10.5031 6.16296C10.1545 6.84728 9.64882 7.43937 9.02749 7.8908C8.40615 8.34224 7.68679 8.6402 6.92822 8.76033C6.16966 8.88047 5.39343 8.81936 4.66301 8.582L2.88751 8.005C3.59851 6.38595 4.72793 4.9855 6.15962 3.94767C7.59132 2.90984 9.27361 2.27209 11.0335 2.1ZM5.39051 19.4345C4.0653 18.2575 3.07883 16.7476 2.53326 15.0612C1.98768 13.3748 1.90283 11.5732 2.28751 9.843L3.50001 10.2L4.06501 10.423C4.79525 10.6601 5.45902 11.0667 6.00205 11.6095C6.54509 12.1523 6.95197 12.8159 7.18945 13.546C7.42693 14.2762 7.48826 15.0521 7.36844 15.8105C7.24861 16.5689 6.95103 17.2881 6.50001 17.9095L5.39051 19.4345ZM12 21.95C10.2247 21.9521 8.48154 21.4769 6.95301 20.574L7.65001 19.6145L8.06351 19.046C8.51485 18.4246 9.10687 17.9189 9.79114 17.5702C10.4754 17.2215 11.2325 17.0397 12.0005 17.0397C12.7685 17.0397 13.5256 17.2215 14.2099 17.5702C14.8941 17.9189 15.4862 18.4246 15.9375 19.046L17.0475 20.5735C15.5189 21.4766 13.7755 21.9521 12 21.95ZM18.6095 19.435L17.904 18.464L17.5 17.9095C17.0485 17.2882 16.7505 16.5689 16.6303 15.8104C16.5102 15.0519 16.5712 14.2757 16.8085 13.5453C17.0458 12.815 17.4526 12.1511 17.9957 11.6081C18.5387 11.0651 19.2026 10.6583 19.933 10.421L21.711 9.843C22.0957 11.5732 22.0108 13.3748 21.4653 15.0612C20.9197 16.7476 19.9332 18.2575 18.608 19.4345L18.6095 19.435Z"/>
		</g>
		<defs>
			<clipPath id="clip0_7114_66647">
				<rect width="24" height="24" fill="#fff"/>
			</clipPath>
		</defs>
	</symbol>

	<symbol id="steel-wheel-icon">
		<g clip-path="url(#clip0_7114_66652)">
			<circle cx="12" cy="12" r="11" stroke-width="2"/>
			<circle cx="12" cy="12" r="5" stroke-width="2"/>
			<circle cx="12" cy="12" r="2" stroke-width="2"/>
		</g>
		<defs>
			<clipPath id="clip0_7114_66652">
				<rect width="24" height="24" fill="#fff"/>
			</clipPath>
		</defs>
	</symbol>

	<symbol id="dropdown-bird-icon">
		<path d="M6 9.5L12 14.5L18 9.5"  stroke-width="3" stroke-linecap="round"/>
	</symbol>

	<symbol id="square-minus-icon">
		<path d="M12 22C17.5228 22 22 17.5228 22 12C22 6.47715 17.5228 2 12 2C6.47715 2 2 6.47715 2 12C2 17.5228 6.47715 22 12 22Z"  stroke-width="2" stroke-linecap="round" stroke-linejoin="round"/>
		<path d="M8 12H16"  stroke-width="2" stroke-linecap="round" stroke-linejoin="round"/>
	</symbol>

	<symbol id="square-plus-icon">
		<path d="M12 22C17.5228 22 22 17.5228 22 12C22 6.47715 17.5228 2 12 2C6.47715 2 2 6.47715 2 12C2 17.5228 6.47715 22 12 22Z" stroke-width="2" stroke-linecap="round" stroke-linejoin="round"/>
		<path d="M12 8V16" stroke-width="2" stroke-linecap="round" stroke-linejoin="round"/>
		<path d="M8 12H16" stroke-width="2" stroke-linecap="round" stroke-linejoin="round"/>
	</symbol>

	<symbol id="pin-icon">
		<path d="M8.99986 1.27539C7.36714 1.27718 5.80181 1.92656 4.6473 3.08107C3.49279 4.23558 2.8434 5.80092 2.84161 7.43364C2.84161 11.9629 7.11661 16.7239 8.99986 16.7239C10.8831 16.7239 15.1581 11.9629 15.1581 7.43364C15.1563 5.80092 14.5069 4.23558 13.3524 3.08107C12.1979 1.92656 10.6326 1.27718 8.99986 1.27539ZM8.99986 15.5989C7.93561 15.5989 3.96661 11.4482 3.96661 7.43364C3.96661 6.09844 4.49702 4.81793 5.44115 3.8738C6.38528 2.92967 7.66579 2.39927 9.00099 2.39927C10.3362 2.39927 11.6167 2.92967 12.5608 3.8738C13.505 4.81793 14.0354 6.09844 14.0354 7.43364C14.0331 11.4482 10.0641 15.5989 8.99986 15.5989ZM8.99986 5.03402C8.52526 5.03413 8.06135 5.17497 7.6668 5.43874C7.27224 5.7025 6.96477 6.07735 6.78325 6.51586C6.60173 6.95438 6.55432 7.43688 6.64702 7.90234C6.73972 8.3678 6.96836 8.79531 7.30403 9.13083C7.63971 9.46634 8.06733 9.69479 8.53283 9.78727C8.99834 9.87975 9.48081 9.83211 9.91924 9.65039C10.3577 9.46867 10.7324 9.16101 10.996 8.76633C11.2595 8.37165 11.4002 7.90768 11.4001 7.43308C11.3992 6.79689 11.146 6.18702 10.696 5.73727C10.246 5.28752 9.63606 5.03461 8.99986 5.03402ZM8.99986 8.7077C8.74779 8.70759 8.50141 8.63274 8.29187 8.49262C8.08234 8.35249 7.91905 8.15338 7.82266 7.92047C7.72628 7.68755 7.70112 7.43128 7.75036 7.18407C7.79961 6.93685 7.92105 6.70979 8.09933 6.53158C8.27761 6.35338 8.50473 6.23204 8.75197 6.1829C8.9992 6.13377 9.25546 6.15904 9.48833 6.25553C9.72121 6.35202 9.92024 6.51539 10.0603 6.72499C10.2003 6.93459 10.2751 7.18101 10.2751 7.43308C10.2746 7.77109 10.1401 8.09512 9.90103 8.33408C9.66197 8.57304 9.33788 8.70741 8.99986 8.7077Z"/>
	</symbol>

	<symbol id="yandex-icon">
		<path d="M1.53052 8.9161C1.53052 4.81264 4.88752 1.48633 9.03052 1.48633C13.172 1.48633 16.5305 4.81264 16.5305 8.9161C16.5305 13.0196 13.172 16.3459 9.03052 16.3459C4.88752 16.3459 1.53052 13.0196 1.53052 8.9161Z" fill="#FC3F1D"/>
		<path d="M9.99042 5.69518H9.29742C8.02692 5.69518 7.35867 6.33265 7.35867 7.27252C7.35867 8.33497 7.82067 8.83277 8.76942 9.47099L9.55317 9.99404L7.30092 13.3278H5.61792L7.63917 10.3455C6.47667 9.52002 5.82417 8.71835 5.82417 7.36242C5.82417 5.66248 7.02042 4.50195 9.28917 4.50195H11.5414V13.3196H9.99042V5.69518Z" fill="#fff"/>
	</symbol>

	<symbol id="moon-icon">
		<path d="M20.1019 15.7049C20.039 15.5912 19.9487 15.4966 19.8399 15.4306C19.7312 15.3646 19.6078 15.3294 19.482 15.3286C18.2235 15.3349 16.9856 14.9951 15.8926 14.3435C14.7996 13.6919 13.8901 12.7514 13.2554 11.6164C12.6207 10.4815 12.2832 9.19211 12.2768 7.87782C12.2704 6.56353 12.5953 5.27063 13.2189 4.129C13.2823 4.01436 13.3156 3.88429 13.3154 3.75192C13.3153 3.61954 13.2818 3.48955 13.2182 3.37504C13.1546 3.26053 13.0632 3.16556 12.9532 3.09972C12.8433 3.03387 12.7186 2.99948 12.5918 3.00001C11.2337 3.00226 9.89527 3.3402 8.68613 3.9862C7.47698 4.6322 6.43143 5.5679 5.63497 6.71679C4.8385 7.86567 4.31375 9.19512 4.10362 10.5964C3.89349 11.9977 4.00395 13.431 4.42597 14.7792C4.9 16.0345 5.42166 17.0501 6.18455 17.9554C7.08962 19.0294 8.22753 19.8618 9.50332 20.3831C10.7791 20.9045 12.1558 21.0996 13.5185 20.9523C14.8812 20.805 16.1904 20.3195 17.3369 19.5363C18.4834 18.7531 19.4339 17.6949 20.1091 16.4501C20.1699 16.3359 20.2012 16.2072 20.2 16.0765C20.1987 15.9459 20.1649 15.8178 20.1019 15.7049Z" fill="#2C2171"/>
	</symbol>

	<symbol id="cloud-sun-icon">
		<g clip-path="url(#clip0_8023_55603)">
			<path d="M15.8848 12.5585C15.6355 11.0736 14.8761 9.72613 13.7411 8.75455C12.6062 7.78297 11.1689 7.25 9.68369 7.25C8.19848 7.25 6.76117 7.78297 5.62623 8.75455C4.49129 9.72613 3.73193 11.0736 3.48258 12.5585C2.56698 12.5823 1.69309 12.9517 1.03196 13.5946C0.370832 14.2374 -0.0299238 15.1074 -0.091859 16.0341C-0.153794 16.9609 0.127551 17.8777 0.697102 18.6051C1.26665 19.3326 2.0834 19.8182 2.98747 19.9671C3.03751 19.9887 3.09134 19.9999 3.14574 20H16.2095C16.2612 19.9995 16.3123 19.9883 16.3596 19.9671C17.2628 19.819 18.0791 19.3348 18.6491 18.6089C19.219 17.8831 19.5017 16.9678 19.4418 16.042C19.382 15.1161 18.9839 14.2461 18.3254 13.6019C17.6669 12.9578 16.7952 12.5858 15.8807 12.5585H15.8848Z" fill="#BAD2E8"/>
			<path d="M23.3045 9.52102H21.7711C21.7711 9.65144 21.7908 9.78186 21.7908 9.91623C21.7908 10.0506 21.7908 10.181 21.7671 10.3114H23.3045C23.4093 10.3114 23.5098 10.2698 23.5839 10.1957C23.658 10.1216 23.6997 10.021 23.6997 9.91623C23.6997 9.81142 23.658 9.71089 23.5839 9.63678C23.5098 9.56266 23.4093 9.52102 23.3045 9.52102Z" fill="#FFB800"/>
			<path d="M16.3013 11.6947C17.4393 11.8655 18.4644 12.4774 19.1548 13.398C19.6691 13.0476 20.0995 12.5876 20.4148 12.051C20.7302 11.5144 20.9228 10.9146 20.9787 10.2948C21.0346 9.67488 20.9525 9.05031 20.7382 8.46596C20.5239 7.88161 20.1829 7.35199 19.7395 6.91518C19.2962 6.47837 18.7615 6.14522 18.1741 5.93967C17.5866 5.73413 16.9609 5.66131 16.3419 5.72644C15.7229 5.79156 15.1261 5.99303 14.5943 6.31634C14.0624 6.63965 13.6089 7.07678 13.2661 7.59631C14.766 8.52259 15.8527 9.98983 16.3013 11.6947Z" fill="#FFB800"/>
			<path d="M20.5894 6.66753L21.6723 5.58465C21.737 5.50904 21.7709 5.41179 21.767 5.31232C21.7632 5.21286 21.7219 5.1185 21.6516 5.04812C21.5812 4.97773 21.4868 4.9365 21.3874 4.93266C21.2879 4.92882 21.1906 4.96265 21.115 5.0274L20.0322 6.11028C20.2321 6.28122 20.4185 6.46754 20.5894 6.66753Z" fill="#FFB800"/>
			<path d="M16.7835 4.90888C16.9178 4.90888 17.0483 4.90888 17.1787 4.92864V3.39521C17.1787 3.2904 17.137 3.18987 17.0629 3.11576C16.9888 3.04164 16.8883 3 16.7835 3C16.6787 3 16.5781 3.04164 16.504 3.11576C16.4299 3.18987 16.3883 3.2904 16.3883 3.39521V4.93259C16.5187 4.92073 16.6491 4.90888 16.7835 4.90888Z" fill="#FFB800"/>
			<path d="M13.5388 6.11423L12.452 5.0274C12.3764 4.96265 12.2791 4.92882 12.1796 4.93266C12.0802 4.9365 11.9858 4.97773 11.9154 5.04812C11.8451 5.1185 11.8038 5.21286 11.8 5.31232C11.7961 5.41179 11.83 5.50904 11.8947 5.58465L12.9776 6.66753C13.1498 6.46864 13.3375 6.28363 13.5388 6.11423Z" fill="#FFB800"/>
			<path d="M20.5894 13.1609C20.4186 13.361 20.2323 13.5473 20.0322 13.7181L21.119 14.805C21.1946 14.8697 21.2918 14.9035 21.3913 14.8997C21.4908 14.8959 21.5851 14.8546 21.6555 14.7842C21.7259 14.7139 21.7671 14.6195 21.771 14.52C21.7748 14.4206 21.741 14.3233 21.6762 14.2477L20.5894 13.1609Z" fill="#FFB800"/>
		</g>
		<defs>
			<clipPath id="clip0_8023_55603">
				<rect width="24" height="24" fill="#fff"/>
			</clipPath>
		</defs>
	</symbol>

	<symbol id="sun-icon">
		<path d="M16.5 12.3214C16.5 14.9842 14.3414 17.1429 11.6786 17.1429C9.01577 17.1429 6.85714 14.9842 6.85714 12.3214C6.85714 9.65863 9.01577 7.5 11.6786 7.5C14.3414 7.5 16.5 9.65863 16.5 12.3214Z" fill="#FFB800"/>
		<path fill-rule="evenodd" clip-rule="evenodd" d="M22 12C22 12.1972 21.8401 12.3571 21.6429 12.3571H18.4286C18.2313 12.3571 18.0714 12.1972 18.0714 12C18.0714 11.8028 18.2313 11.6429 18.4286 11.6429H21.6429C21.8401 11.6429 22 11.8028 22 12Z" fill="#FFB800"/>
		<path fill-rule="evenodd" clip-rule="evenodd" d="M5.92857 12C5.92857 12.1972 5.76867 12.3571 5.57143 12.3571H2.35714C2.1599 12.3571 2 12.1972 2 12C2 11.8028 2.1599 11.6429 2.35714 11.6429H5.57143C5.76867 11.6429 5.92857 11.8028 5.92857 12Z" fill="#FFB800"/>
		<path fill-rule="evenodd" clip-rule="evenodd" d="M19.071 4.92903C19.2104 5.06851 19.2104 5.29464 19.071 5.43411L16.5589 7.9462C16.4194 8.08567 16.1933 8.08567 16.0538 7.9462C15.9143 7.80673 15.9143 7.5806 16.0538 7.44112L18.5659 4.92903C18.7054 4.78956 18.9315 4.78956 19.071 4.92903Z" fill="#FFB800"/>
		<path fill-rule="evenodd" clip-rule="evenodd" d="M7.9459 16.0541C8.08537 16.1936 8.08537 16.4197 7.9459 16.5592L5.43381 19.0713C5.29433 19.2107 5.0682 19.2107 4.92873 19.0713C4.78926 18.9318 4.78926 18.7057 4.92873 18.5662L7.44082 16.0541C7.58029 15.9146 7.80643 15.9146 7.9459 16.0541Z" fill="#FFB800"/>
		<path fill-rule="evenodd" clip-rule="evenodd" d="M19.071 19.071C18.9315 19.2104 18.7054 19.2104 18.5659 19.071L16.0538 16.5589C15.9143 16.4194 15.9143 16.1933 16.0538 16.0538C16.1933 15.9143 16.4194 15.9143 16.5589 16.0538L19.071 18.5659C19.2104 18.7054 19.2104 18.9315 19.071 19.071Z" fill="#FFB800"/>
		<path fill-rule="evenodd" clip-rule="evenodd" d="M7.9459 7.9459C7.80642 8.08537 7.58029 8.08537 7.44082 7.9459L4.92873 5.43381C4.78926 5.29433 4.78926 5.0682 4.92873 4.92873C5.0682 4.78926 5.29433 4.78926 5.43381 4.92873L7.9459 7.44082C8.08537 7.58029 8.08537 7.80643 7.9459 7.9459Z" fill="#FFB800"/>
		<path fill-rule="evenodd" clip-rule="evenodd" d="M12 2C12.1972 2 12.3571 2.1599 12.3571 2.35714V5.57143C12.3571 5.76867 12.1972 5.92857 12 5.92857C11.8028 5.92857 11.6429 5.76867 11.6429 5.57143V2.35714C11.6429 2.1599 11.8028 2 12 2Z" fill="#FFB800"/>
		<path fill-rule="evenodd" clip-rule="evenodd" d="M12 18.0714C12.1972 18.0714 12.3571 18.2313 12.3571 18.4286V21.6429C12.3571 21.8401 12.1972 22 12 22C11.8028 22 11.6429 21.8401 11.6429 21.6429V18.4286C11.6429 18.2313 11.8028 18.0714 12 18.0714Z" fill="#FFB800"/>
	</symbol>

	<symbol id="cloud-moon-icon">
		<path d="M23.8463 9.83712C23.8116 9.7759 23.7616 9.725 23.7015 9.68947C23.6414 9.65394 23.5731 9.63502 23.5036 9.6346C22.8077 9.63796 22.1231 9.45512 21.5187 9.10446C20.9143 8.7538 20.4114 8.24766 20.0604 7.6369C19.7095 7.02614 19.5229 6.33226 19.5193 5.62498C19.5158 4.9177 19.6954 4.22193 20.0403 3.60756C20.0753 3.54587 20.0937 3.47588 20.0937 3.40464C20.0936 3.3334 20.075 3.26344 20.0399 3.20182C20.0047 3.1402 19.9542 3.08909 19.8934 3.05366C19.8326 3.01823 19.7636 2.99972 19.6935 3C18.9425 3.00121 18.2024 3.18308 17.5338 3.53072C16.8652 3.87836 16.287 4.3819 15.8466 5.00017C15.4062 5.61844 15.116 6.33388 14.9998 7.08797C14.8836 7.84207 14.9447 8.61341 15.1781 9.33891C15.4998 10 15.6002 10.5 16.1505 11.0482C16.651 11.6262 17.2802 12.0741 17.9857 12.3547C18.6912 12.6352 19.4524 12.7402 20.2059 12.661C20.9595 12.5817 21.6834 12.3204 22.3174 11.8989C22.9514 11.4775 23.4769 10.908 23.8503 10.2381C23.884 10.1767 23.9013 10.1074 23.9006 10.0371C23.8999 9.96677 23.8812 9.89786 23.8463 9.83712Z" fill="#2C2171"/>
		<path d="M15.6979 12.6763C15.453 11.215 14.7073 9.88891 13.5928 8.93278C12.4782 7.97665 11.0667 7.45215 9.6082 7.45215C8.14967 7.45215 6.73819 7.97665 5.62363 8.93278C4.50908 9.88891 3.76336 11.215 3.5185 12.6763C2.61935 12.6997 1.76115 13.0632 1.1119 13.6959C0.46265 14.3285 0.069093 15.1846 0.00827043 16.0966C-0.0525522 17.0086 0.223739 17.9109 0.783058 18.6268C1.34238 19.3427 2.14445 19.8206 3.03228 19.9671C3.08143 19.9883 3.13428 19.9994 3.18771 19.9995H16.0167C16.0676 19.9989 16.1177 19.9879 16.1642 19.9671C17.0512 19.8213 17.8528 19.3448 18.4125 18.6305C18.9722 17.9162 19.2498 17.0155 19.191 16.1043C19.1323 15.1932 18.7414 14.337 18.0947 13.7031C17.448 13.0692 16.592 12.7031 15.6939 12.6763H15.6979Z" fill="#BAD2E8"/>
	</symbol>
</svg>
