<svg xmlns="http://www.w3.org/2000/svg">
	<symbol id="telegram-icon">
		<path d="M19.4732 4.14133C17.0986 5.19905 6.91687 9.73546 4.10358 10.9719C2.21681 11.7639 3.32125 12.5063 3.32125 12.5063C3.32125 12.5063 4.93176 13.1002 6.31226 13.5457C7.69276 13.9912 8.42905 13.4962 8.42905 13.4962L14.9173 8.7939C17.2181 7.11112 16.666 8.49696 16.1139 9.09084C14.9173 10.3778 12.9387 12.4071 11.2821 14.0406C10.5458 14.7335 10.914 15.3276 11.2361 15.6245C12.4326 16.7134 15.6997 18.9407 15.8838 19.0893C16.856 19.8295 18.7682 20.8952 19.059 18.6438L20.2095 10.8729C20.5777 8.24955 20.9458 5.82411 20.9918 5.13119C21.1298 3.4484 19.4732 4.14133 19.4732 4.14133Z"/>
	</symbol>
	
</svg>

