<svg xmlns="http://www.w3.org/2000/svg">
	<symbol id="telegram-icon">
		<path d="M19.4732 4.14133C17.0986 5.19905 6.91687 9.73546 4.10358 10.9719C2.21681 11.7639 3.32125 12.5063 3.32125 12.5063C3.32125 12.5063 4.93176 13.1002 6.31226 13.5457C7.69276 13.9912 8.42905 13.4962 8.42905 13.4962L14.9173 8.7939C17.2181 7.11112 16.666 8.49696 16.1139 9.09084C14.9173 10.3778 12.9387 12.4071 11.2821 14.0406C10.5458 14.7335 10.914 15.3276 11.2361 15.6245C12.4326 16.7134 15.6997 18.9407 15.8838 19.0893C16.856 19.8295 18.7682 20.8952 19.059 18.6438L20.2095 10.8729C20.5777 8.24955 20.9458 5.82411 20.9918 5.13119C21.1298 3.4484 19.4732 4.14133 19.4732 4.14133Z"/>
	</symbol>

	 <symbol id="user-icon">
		<g clip-path="url(#clip0_7002_29793)">
			<mask id="mask0_7002_29793" style="mask-type:luminance" maskUnits="userSpaceOnUse" x="0" y="0" width="18" height="18">
			<path d="M18 0H0V18H18V0Z" fill="white"/>
			</mask>
			<g mask="url(#mask0_7002_29793)">
				<path d="M9 1.5C7.035 1.5 5.4375 3.0975 5.4375 5.0625C5.4375 6.99 6.945 8.55 8.91 8.6175C8.97 8.61 9.03 8.61 9.075 8.6175C9.09 8.6175 9.0975 8.6175 9.1125 8.6175C9.12 8.6175 9.12 8.6175 9.1275 8.6175C11.0475 8.55 12.555 6.99 12.5625 5.0625C12.5625 3.0975 10.965 1.5 9 1.5Z" fill="#352F2E"/>
				<path d="M12.8098 10.6127C10.7173 9.21766 7.30473 9.21766 5.19723 10.6127C4.24473 11.2502 3.71973 12.1127 3.71973 13.0352C3.71973 13.9577 4.24473 14.8127 5.18973 15.4427C6.23973 16.1477 7.61976 16.5002 8.99976 16.5002C10.3798 16.5002 11.7598 16.1477 12.8098 15.4427C13.7548 14.8052 14.2798 13.9502 14.2798 13.0202C14.2723 12.0977 13.7548 11.2427 12.8098 10.6127Z" fill="#352F2E"/>
			</g>
		</g>
		<defs>
			<clipPath id="clip0_7002_29793">
			<rect width="18" height="18" fill="white"/>
			</clipPath>
		</defs>
	</symbol>

	<symbol id="bird-icon">
		<path d="M20 6L9 17L4 12"  stroke-width="2" stroke-linecap="round" stroke-linejoin="round"/>
	</symbol>

	<symbol id="cvs-discount-icon">
		<circle cx="9" cy="9" r="9"/>
		<path d="M13.65 8.49003C13.845 8.49003 14 8.33503 14 8.14003V7.675C14 5.625 13.375 5 11.325 5H6.675C4.625 5 4 5.625 4 7.675V7.91C4 8.10503 4.155 8.26003 4.35 8.26003C4.8 8.26003 5.165 8.62503 5.165 9.07503C5.165 9.52502 4.8 9.88503 4.35 9.88503C4.155 9.88503 4 10.04 4 10.235V10.47C4 12.52 4.625 13.145 6.675 13.145H11.325C13.375 13.145 14 12.52 14 10.47C14 10.275 13.845 10.12 13.65 10.12C13.2 10.12 12.835 9.75502 12.835 9.30503C12.835 8.85503 13.2 8.49003 13.65 8.49003ZM7.5 7.51C7.775 7.51 8 7.735 8 8.01C8 8.28503 7.78 8.51003 7.5 8.51003C7.225 8.51003 7 8.28503 7 8.01C7 7.735 7.22 7.51 7.5 7.51ZM10.5 11.01C10.22 11.01 9.995 10.785 9.995 10.51C9.995 10.235 10.22 10.01 10.495 10.01C10.77 10.01 10.995 10.235 10.995 10.51C10.995 10.785 10.78 11.01 10.5 11.01ZM10.95 7.81L7.585 11.175C7.51 11.25 7.415 11.285 7.32 11.285C7.225 11.285 7.13 11.25 7.055 11.175C6.91 11.03 6.91 10.79 7.055 10.645L10.42 7.28C10.565 7.135 10.805 7.135 10.95 7.28C11.095 7.425 11.095 7.665 10.95 7.81Z" fill="#fff"/>
	</symbol>

	<symbol id="cvs-screw-icon">
		<circle cx="9" cy="9" r="9" />
		<path fill-rule="evenodd" clip-rule="evenodd" d="M9.07692 3.5C8.4486 3.5 7.8764 3.83039 6.73199 4.49116L6.34493 4.71465C5.20052 5.37543 4.62832 5.70581 4.31416 6.25C4 6.79419 4 7.45496 4 8.77651V9.22349C4 10.545 4 11.2058 4.31416 11.75C4.62832 12.2942 5.20052 12.6246 6.34493 13.2853L6.73199 13.5088C7.8764 14.1696 8.4486 14.5 9.07692 14.5C9.70525 14.5 10.2774 14.1696 11.4219 13.5088L11.8089 13.2853C12.9533 12.6246 13.5255 12.2942 13.8397 11.75C14.1538 11.2058 14.1538 10.545 14.1538 9.22349V8.77651C14.1538 7.45496 14.1538 6.79419 13.8397 6.25C13.5255 5.70581 12.9533 5.37543 11.8089 4.71465L11.4219 4.49116C10.2774 3.83039 9.70525 3.5 9.07692 3.5ZM6.96154 9C6.96154 7.86091 7.90863 6.9375 9.07692 6.9375C10.2452 6.9375 11.1923 7.86091 11.1923 9C11.1923 10.1391 10.2452 11.0625 9.07692 11.0625C7.90863 11.0625 6.96154 10.1391 6.96154 9Z" fill="#fff"/>
	</symbol>

	<symbol id="icon-pen">
		<path d="M12.1425 1.5H5.8575C3.1275 1.5 1.5 3.1275 1.5 5.8575V12.135C1.5 14.8725 3.1275 16.5 5.8575 16.5H12.135C14.865 16.5 16.4925 14.8725 16.4925 12.1425V5.8575C16.5 3.1275 14.8725 1.5 12.1425 1.5ZM8.2125 13.1325C7.995 13.35 7.5825 13.56 7.2825 13.605L5.4375 13.8675C5.37 13.875 5.3025 13.8825 5.235 13.8825C4.9275 13.8825 4.6425 13.7775 4.44 13.575C4.1925 13.3275 4.0875 12.9675 4.1475 12.57L4.41 10.725C4.455 10.4175 4.6575 10.0125 4.8825 9.795L8.2275 6.45C8.2875 6.6075 8.3475 6.765 8.43 6.945C8.505 7.1025 8.5875 7.2675 8.6775 7.4175C8.7525 7.545 8.835 7.665 8.9025 7.755C8.985 7.8825 9.0825 8.0025 9.1425 8.07C9.18 8.1225 9.21 8.16 9.225 8.175C9.4125 8.4 9.63 8.61 9.8175 8.7675C9.87 8.82 9.9 8.85 9.915 8.8575C10.0275 8.9475 10.14 9.0375 10.2375 9.105C10.3575 9.195 10.4775 9.2775 10.605 9.345C10.755 9.435 10.92 9.5175 11.085 9.6C11.2575 9.675 11.415 9.7425 11.5725 9.795L8.2125 13.1325ZM13.0275 8.3175L12.3375 9.015C12.2925 9.06 12.2325 9.0825 12.1725 9.0825C12.15 9.0825 12.12 9.0825 12.105 9.075C10.5825 8.64 9.3675 7.425 8.9325 5.9025C8.91 5.82 8.9325 5.73 8.9925 5.6775L9.69 4.98C10.83 3.84 11.9175 3.8625 13.035 4.98C13.605 5.55 13.8825 6.0975 13.8825 6.6675C13.875 7.2075 13.5975 7.7475 13.0275 8.3175Z" />
	</symbol>

	<symbol id="cvs-car-icon">
		<circle cx="9" cy="9" r="9" />
		<path d="M13.8811 8.52428C13.858 8.41599 13.8176 8.30416 13.7632 8.19352C13.6253 7.91191 13.4161 7.67515 13.1614 7.49832H13.4847C13.6265 7.49832 13.7357 7.39139 13.7349 7.25372C13.7347 7.18009 13.7321 7.10372 13.7264 7.04066C13.7168 6.89085 13.6763 6.66427 13.651 6.583C13.6098 6.44964 13.4537 6.32078 13.2917 6.29141C13.1932 6.27456 13.0594 6.25811 12.8796 6.25792C12.8569 6.25792 12.8347 6.25831 12.8136 6.2587C12.7676 6.04583 12.7207 5.82807 12.6726 5.60443C12.5954 5.24625 12.4043 4.90237 12.1343 4.63604C11.8509 4.35639 11.4925 4.17486 11.1242 4.12492C10.9755 4.10514 10.8264 4.08771 10.6774 4.07204C9.21441 3.97593 8.78529 3.97593 7.3222 4.07204C7.17275 4.08771 7.02349 4.10514 6.87444 4.12492C6.50714 4.17466 6.14869 4.3562 5.86527 4.63584C5.59533 4.90218 5.40423 5.24606 5.32699 5.60462C5.27912 5.82826 5.23205 6.04583 5.18619 6.25851C5.16506 6.25792 5.14294 6.25772 5.12021 6.25772C4.94038 6.25792 4.80661 6.27437 4.70805 6.29121C4.54633 6.32059 4.39023 6.44964 4.3488 6.5828C4.32345 6.66407 4.28302 6.89065 4.27336 7.04046C4.26773 7.10332 4.26532 7.17989 4.26492 7.25353C4.26411 7.39139 4.37334 7.49812 4.51515 7.49812H4.8384C4.58374 7.67496 4.37434 7.91172 4.23655 8.19332C4.18224 8.30397 4.14181 8.41579 4.11868 8.52408C4.05934 8.82194 4.00101 9.21674 4 9.73961C4.0008 10.2623 4.05954 10.6393 4.11968 10.9195C4.21121 11.3164 4.57408 11.6915 4.98242 11.846C4.97437 11.9666 4.99409 12.2897 5.0317 12.5044C5.04538 12.5954 5.06831 12.7061 5.09325 12.8126C5.13972 13.012 5.33484 13.1667 5.54001 13.1667H6.68737C6.89275 13.1667 7.06895 13.012 7.09108 12.8126C7.10315 12.7061 7.1126 12.5954 7.11522 12.5044C7.12327 12.3506 7.11562 12.1415 7.10214 11.9907C7.92143 12.0148 8.74293 12.0314 9 12.0287C9.25707 12.0314 10.0786 12.015 10.8979 11.9907C10.8844 12.1415 10.8767 12.3508 10.8848 12.5044C10.8874 12.5954 10.8969 12.7061 10.9089 12.8126C10.931 13.012 11.1073 13.1667 11.3126 13.1667H12.46C12.6654 13.1667 12.8603 13.012 12.9067 12.8126C12.9319 12.7061 12.9546 12.5954 12.9683 12.5044C13.0057 12.2897 13.0254 11.9668 13.0176 11.846C13.4257 11.6913 13.7886 11.3163 13.8803 10.9195C13.9403 10.6393 13.999 10.2623 14 9.73961C13.999 9.21655 13.9405 8.82194 13.8811 8.52428ZM5.59774 10.3136C5.12061 10.3136 4.734 9.93701 4.734 9.47269C4.734 9.00838 5.12081 8.63179 5.59774 8.63179C6.07467 8.63179 6.46148 9.00838 6.46148 9.47269C6.46148 9.93701 6.07467 10.3136 5.59774 10.3136ZM10.2862 9.94582H7.71364C7.44531 9.94582 7.22766 9.73393 7.22766 9.47269C7.22766 9.21145 7.44531 8.99956 7.71364 8.99956H10.2862C10.5545 8.99956 10.7721 9.21145 10.7721 9.47269C10.7721 9.73393 10.5545 9.94582 10.2862 9.94582ZM8.9998 6.87812C7.79833 6.88262 6.67571 7.00306 5.9572 7.1186C6.04932 6.69736 6.14467 6.25714 6.24444 5.79184C6.32651 5.41056 6.66022 5.07549 7.00278 5.02907C8.32796 4.85204 9.67164 4.85204 10.9958 5.02907C11.3394 5.07568 11.6729 5.41075 11.755 5.79145C11.8547 6.25655 11.9501 6.69678 12.0424 7.1186C11.3239 7.00306 10.2013 6.88243 8.9998 6.87812ZM12.4019 10.3136C11.9247 10.3136 11.5381 9.93701 11.5381 9.47269C11.5381 9.00838 11.9249 8.63179 12.4019 8.63179C12.8788 8.63179 13.2656 9.00838 13.2656 9.47269C13.2656 9.93701 12.8788 10.3136 12.4019 10.3136Z" fill="#fff"/>
	</symbol>

	<symbol id="icon-cross">
		<path d="M12.1426 1.5C14.8725 1.50003 16.4997 3.12749 16.4922 5.85742V12.1426C16.4922 14.8725 14.8647 16.5 12.1348 16.5H5.85742C3.12747 16.5 1.5 14.8722 1.5 12.1348V5.85742C1.50003 3.12749 3.12749 1.50003 5.85742 1.5H12.1426ZM13.0605 4.93945C12.4748 4.35367 11.5252 4.35367 10.9395 4.93945L9 6.87891L7.06055 4.93945C6.47476 4.35367 5.52524 4.35367 4.93945 4.93945C4.35367 5.52524 4.35367 6.47476 4.93945 7.06055L6.87891 9L4.93945 10.9395C4.35367 11.5252 4.35367 12.4748 4.93945 13.0605C5.52524 13.6463 6.47476 13.6463 7.06055 13.0605L9 11.1211L10.9395 13.0605C11.5252 13.6463 12.4748 13.6463 13.0605 13.0605C13.6463 12.4748 13.6463 11.5252 13.0605 10.9395L11.1211 9L13.0605 7.06055C13.6463 6.47476 13.6463 5.52524 13.0605 4.93945Z"/>
	</symbol>

	<symbol id="cvs-wheel-house-icon">
		<circle cx="9" cy="9" r="9"/>
		<path d="M7.25 5C5.708 5 4.5 7.1963 4.5 10C4.5 12.8037 5.708 15 7.25 15C8.792 15 10 12.8037 10 10C10 7.1963 8.792 5 7.25 5ZM7.25 13C6.42945 13 6 11.4907 6 10C6 8.50927 6.42945 7 7.25 7C8.07055 7 8.5 8.50927 8.5 10C8.5 11.4907 8.07055 13 7.25 13Z" fill="white"/>
		<path d="M7.20001 11.7505C7.44855 11.7505 7.65003 10.9446 7.65003 9.95044C7.65003 8.9563 7.44855 8.15039 7.20001 8.15039C6.95148 8.15039 6.75 8.9563 6.75 9.95044C6.75 10.9446 6.95148 11.7505 7.20001 11.7505Z" fill="white"/>
		<path d="M10.8575 5H9C10.1162 5.85158 10.8575 7.7192 10.8575 10C10.8575 12.2808 10.1162 14.1484 9 15H10.8575C12.5396 15 13.8575 12.8037 13.8575 10C13.8575 7.1963 12.5396 5 10.8575 5Z" fill="white"/>
		<path d="M4 4.875L9 3L14 4.875" stroke="white" stroke-width="0.9375" stroke-linecap="round"/>
	</symbol>

	<symbol id="cvs-wheel-icon">
		<circle cx="9" cy="9" r="9"/>
		<path d="M7.25 4C5.708 4 4.5 6.1963 4.5 9C4.5 11.8037 5.708 14 7.25 14C8.792 14 10 11.8037 10 9C10 6.1963 8.792 4 7.25 4ZM7.25 12C6.42945 12 6 10.4907 6 9C6 7.50927 6.42945 6 7.25 6C8.07055 6 8.5 7.50927 8.5 9C8.5 10.4907 8.07055 12 7.25 12Z" fill="#fff"/>
		<path d="M7.20001 10.7505C7.44855 10.7505 7.65003 9.94458 7.65003 8.95044C7.65003 7.9563 7.44855 7.15039 7.20001 7.15039C6.95148 7.15039 6.75 7.9563 6.75 8.95044C6.75 9.94458 6.95148 10.7505 7.20001 10.7505Z" fill="#fff"/>
		<path d="M10.8575 4H9C10.1162 4.85158 10.8575 6.7192 10.8575 9C10.8575 11.2808 10.1162 13.1484 9 14H10.8575C12.5396 14 13.8575 11.8037 13.8575 9C13.8575 6.1963 12.5396 4 10.8575 4Z" fill="#fff"/>
	</symbol>

	<symbol id="cvs-spanner-icon">
		<circle cx="9" cy="9" r="9"/>
		<path d="M13.6433 6.34796C13.5371 6.30295 13.4197 6.29076 13.3065 6.31294C13.1932 6.33513 13.0892 6.39067 13.0077 6.47244L13.0073 6.47291L11.4326 8.04759C11.3218 8.15344 11.1746 8.2125 11.0214 8.2125C10.8682 8.2125 10.7209 8.15344 10.6102 8.04759L9.95235 7.38973C9.89834 7.33574 9.85549 7.27164 9.82626 7.20109C9.79702 7.13055 9.78197 7.05493 9.78197 6.97856C9.78197 6.90219 9.79702 6.82658 9.82626 6.75603C9.85549 6.68548 9.89834 6.62138 9.95235 6.56739L11.5275 4.99225C11.6086 4.91088 11.6639 4.80731 11.6862 4.6946C11.7085 4.58189 11.6969 4.4651 11.653 4.35895C11.609 4.2528 11.5345 4.16206 11.439 4.09818C11.3435 4.0343 11.2312 4.00013 11.1163 4H11.1127L10.2867 4.00455C9.39091 4.00693 8.53271 4.36498 7.90082 4.99997C7.52599 5.37637 7.24415 5.83504 7.07773 6.3395C6.91131 6.84396 6.8649 7.38029 6.94219 7.90584L7.03101 8.50192L4.51106 11.0216C4.34905 11.1836 4.22053 11.3759 4.13284 11.5876C4.04515 11.7993 4.00001 12.0261 4 12.2552C3.99998 12.718 4.18377 13.1617 4.51095 13.4889C4.83813 13.8161 5.28189 14 5.7446 14C6.20732 14 6.6511 13.8162 6.97831 13.4891L9.49801 10.9689L10.0941 11.058C10.6197 11.1349 11.156 11.0882 11.6604 10.9218C12.1648 10.7553 12.6235 10.4735 13 10.0989C13.635 9.4671 13.9931 8.60896 13.9954 7.71321L14 6.88772C14.001 6.77248 13.9675 6.65956 13.904 6.56342C13.8405 6.46727 13.7497 6.39225 13.6433 6.34796ZM6.4732 12.3492C6.39187 12.4305 6.28825 12.4859 6.17544 12.5083C6.06263 12.5307 5.94571 12.5192 5.83944 12.4752C5.73318 12.4312 5.64235 12.3567 5.57845 12.261C5.51455 12.1654 5.48045 12.053 5.48045 11.9379C5.48045 11.8229 5.51455 11.7105 5.57845 11.6149C5.64235 11.5192 5.73318 11.4447 5.83944 11.4007C5.94571 11.3567 6.06263 11.3451 6.17544 11.3676C6.28825 11.39 6.39187 11.4454 6.4732 11.5267C6.58226 11.6358 6.64352 11.7837 6.64352 11.9379C6.64352 12.0922 6.58226 12.2401 6.4732 12.3492Z" fill="#fff"/>
	</symbol>

	<symbol id="cvs-house-icon">
		<circle cx="9" cy="9" r="9"/>
		<path d="M13.0201 5.90887L10.1401 3.89387C9.35512 3.34387 8.15012 3.37387 7.39512 3.95887L4.89012 5.91387C4.39012 6.30387 3.99512 7.10387 3.99512 7.73387V11.1839C3.99512 12.4589 5.03012 13.4989 6.30512 13.4989H11.6951C12.9701 13.4989 14.0051 12.4639 14.0051 11.1889V7.79887C14.0051 7.12387 13.5701 6.29387 13.0201 5.90887ZM9.37512 11.4989C9.37512 11.7039 9.20512 11.8739 9.00012 11.8739C8.79512 11.8739 8.62512 11.7039 8.62512 11.4989V9.99887C8.62512 9.79387 8.79512 9.62387 9.00012 9.62387C9.20512 9.62387 9.37512 9.79387 9.37512 9.99887V11.4989Z" fill="#fff"/>
	</symbol>

	<symbol id="cvs-calendar-icon">
		<circle cx="9" cy="9" r="9"/>
		<path d="M11.3756 4.78098V4.00098C11.3756 3.79598 11.2056 3.62598 11.0006 3.62598C10.7956 3.62598 10.6256 3.79598 10.6256 4.00098V4.75098H7.3756V4.00098C7.3756 3.79598 7.2056 3.62598 7.0006 3.62598C6.7956 3.62598 6.6256 3.79598 6.6256 4.00098V4.78098C5.2756 4.90598 4.6206 5.71098 4.5206 6.90598C4.5106 7.05098 4.6306 7.17098 4.7706 7.17098H13.2306C13.3756 7.17098 13.4956 7.04598 13.4806 6.90598C13.3806 5.71098 12.7256 4.90598 11.3756 4.78098Z" fill="#fff"/>
		<path d="M13 7.91992H5C4.725 7.91992 4.5 8.14492 4.5 8.41992V11.4999C4.5 12.9999 5.25 13.9999 7 13.9999H11C12.75 13.9999 13.5 12.9999 13.5 11.4999V8.41992C13.5 8.14492 13.275 7.91992 13 7.91992ZM7.605 12.1049C7.58 12.1249 7.555 12.1499 7.53 12.1649C7.5 12.1849 7.47 12.1999 7.44 12.2099C7.41 12.2249 7.38 12.2349 7.35 12.2399C7.315 12.2449 7.285 12.2499 7.25 12.2499C7.185 12.2499 7.12 12.2349 7.06 12.2099C6.995 12.1849 6.945 12.1499 6.895 12.1049C6.805 12.0099 6.75 11.8799 6.75 11.7499C6.75 11.6199 6.805 11.4899 6.895 11.3949C6.945 11.3499 6.995 11.3149 7.06 11.2899C7.15 11.2499 7.25 11.2399 7.35 11.2599C7.38 11.2649 7.41 11.2749 7.44 11.2899C7.47 11.2999 7.5 11.3149 7.53 11.3349C7.555 11.3549 7.58 11.3749 7.605 11.3949C7.695 11.4899 7.75 11.6199 7.75 11.7499C7.75 11.8799 7.695 12.0099 7.605 12.1049ZM7.605 10.3549C7.51 10.4449 7.38 10.4999 7.25 10.4999C7.12 10.4999 6.99 10.4449 6.895 10.3549C6.805 10.2599 6.75 10.1299 6.75 9.99992C6.75 9.86992 6.805 9.73992 6.895 9.64492C7.035 9.50492 7.255 9.45992 7.44 9.53992C7.505 9.56492 7.56 9.59992 7.605 9.64492C7.695 9.73992 7.75 9.86992 7.75 9.99992C7.75 10.1299 7.695 10.2599 7.605 10.3549ZM9.355 12.1049C9.26 12.1949 9.13 12.2499 9 12.2499C8.87 12.2499 8.74 12.1949 8.645 12.1049C8.555 12.0099 8.5 11.8799 8.5 11.7499C8.5 11.6199 8.555 11.4899 8.645 11.3949C8.83 11.2099 9.17 11.2099 9.355 11.3949C9.445 11.4899 9.5 11.6199 9.5 11.7499C9.5 11.8799 9.445 12.0099 9.355 12.1049ZM9.355 10.3549C9.33 10.3749 9.305 10.3949 9.28 10.4149C9.25 10.4349 9.22 10.4499 9.19 10.4599C9.16 10.4749 9.13 10.4849 9.1 10.4899C9.065 10.4949 9.035 10.4999 9 10.4999C8.87 10.4999 8.74 10.4449 8.645 10.3549C8.555 10.2599 8.5 10.1299 8.5 9.99992C8.5 9.86992 8.555 9.73992 8.645 9.64492C8.69 9.59992 8.745 9.56492 8.81 9.53992C8.995 9.45992 9.215 9.50492 9.355 9.64492C9.445 9.73992 9.5 9.86992 9.5 9.99992C9.5 10.1299 9.445 10.2599 9.355 10.3549ZM11.105 12.1049C11.01 12.1949 10.88 12.2499 10.75 12.2499C10.62 12.2499 10.49 12.1949 10.395 12.1049C10.305 12.0099 10.25 11.8799 10.25 11.7499C10.25 11.6199 10.305 11.4899 10.395 11.3949C10.58 11.2099 10.92 11.2099 11.105 11.3949C11.195 11.4899 11.25 11.6199 11.25 11.7499C11.25 11.8799 11.195 12.0099 11.105 12.1049ZM11.105 10.3549C11.08 10.3749 11.055 10.3949 11.03 10.4149C11 10.4349 10.97 10.4499 10.94 10.4599C10.91 10.4749 10.88 10.4849 10.85 10.4899C10.815 10.4949 10.78 10.4999 10.75 10.4999C10.62 10.4999 10.49 10.4449 10.395 10.3549C10.305 10.2599 10.25 10.1299 10.25 9.99992C10.25 9.86992 10.305 9.73992 10.395 9.64492C10.445 9.59992 10.495 9.56492 10.56 9.53992C10.65 9.49992 10.75 9.48992 10.85 9.50992C10.88 9.51492 10.91 9.52492 10.94 9.53992C10.97 9.54992 11 9.56492 11.03 9.58492C11.055 9.60492 11.08 9.62492 11.105 9.64492C11.195 9.73992 11.25 9.86992 11.25 9.99992C11.25 10.1299 11.195 10.2599 11.105 10.3549Z" fill="#fff"/>
	</symbol>
	
	<symbol id="basket-icon">
		<path d="M7.80029 21.999C8.35258 21.999 8.80029 21.5513 8.80029 20.999C8.80029 20.4467 8.35258 19.999 7.80029 19.999C7.24801 19.999 6.80029 20.4467 6.80029 20.999C6.80029 21.5513 7.24801 21.999 7.80029 21.999Z"  stroke-width="2.4" stroke-linecap="round" stroke-linejoin="round"/>
		<path d="M18.7998 21.999C19.3521 21.999 19.7998 21.5513 19.7998 20.999C19.7998 20.4467 19.3521 19.999 18.7998 19.999C18.2475 19.999 17.7998 20.4467 17.7998 20.999C17.7998 21.5513 18.2475 21.999 18.7998 21.999Z"  stroke-width="2.4" stroke-linecap="round" stroke-linejoin="round"/>
		<path d="M2.19971 3.40039H3.79971L6.47971 14.3904C6.57115 14.8508 6.82162 15.2644 7.18725 15.5587C7.55289 15.853 8.01041 16.0094 8.47971 16.0004H18.1997C18.669 16.0094 19.1265 15.853 19.4922 15.5587C19.8578 15.2644 20.1083 14.8508 20.1997 14.3904L21.7997 6.00039H4.79971"  stroke-width="2.4" stroke-linecap="round" stroke-linejoin="round"/>
	</symbol>	

	<symbol id="close-icon">
		<path d="M6 6L18 18" stroke-width="2" stroke-linecap="round"/>
		<path d="M18 6L6 18" stroke-width="2" stroke-linecap="round"/>
	</symbol>	
</svg>
